/* XPM */
static char *b8bb3bd549f1474f8737f10174e3c8ddIarvqV2Jb5vNsumU[] = {
/* columns rows colors chars-per-pixel */
"64 64 252 2 ",
"   c #0E0C0B",
".  c #130E0D",
"X  c #180F0F",
"o  c #16110E",
"O  c #19110F",
"+  c #0D0F14",
"@  c #120F10",
"#  c #161212",
"$  c #1B1413",
"%  c #1B161A",
"&  c #1D181A",
"*  c #221614",
"=  c #2A1717",
"-  c #241916",
";  c #2A1B17",
":  c #241B1B",
">  c #2C1D1A",
",  c #321E17",
"<  c #321E1B",
"1  c #27211F",
"2  c #2D211D",
"3  c #34221D",
"4  c #3A241D",
"5  c #3D291F",
"6  c #1A1C27",
"7  c #2A1F22",
"8  c #152337",
"9  c #2B2122",
"0  c #272329",
"q  c #332523",
"w  c #3A2622",
"e  c #3C2A24",
"r  c #352728",
"t  c #3C2C2A",
"y  c #322B32",
"u  c #393437",
"i  c #42281F",
"p  c #432C25",
"a  c #482B26",
"s  c #432E2B",
"d  c #522D2B",
"f  c #44322C",
"g  c #493228",
"h  c #4C342C",
"j  c #52342B",
"k  c #55392D",
"l  c #4F2F33",
"z  c #493636",
"x  c #4C3933",
"c  c #543B34",
"v  c #563936",
"b  c #5A3C34",
"n  c #623A2D",
"m  c #663C36",
"M  c #773C38",
"N  c #5C4236",
"B  c #57433B",
"V  c #5C433A",
"C  c #63453C",
"Z  c #694539",
"A  c #65493D",
"S  c #6C4B3C",
"D  c #75483A",
"F  c #735339",
"G  c #122B45",
"H  c #173756",
"J  c #27344D",
"K  c #113E64",
"L  c #543E44",
"P  c #03436E",
"I  c #0A426A",
"U  c #15426A",
"Y  c #004672",
"T  c #0C4671",
"R  c #0D4873",
"E  c #154974",
"W  c #1C4C75",
"Q  c #304D6B",
"!  c #264D73",
"~  c #275077",
"^  c #2A5278",
"/  c #37587B",
"(  c #5A4444",
")  c #4D4A53",
"_  c #664A42",
"`  c #6B4C43",
"'  c #694949",
"]  c #754D46",
"[  c #6D5245",
"{  c #6E534B",
"}  c #745444",
"|  c #7A5847",
" . c #74544A",
".. c #7B5B4C",
"X. c #624C52",
"o. c #6C5454",
"O. c #795956",
"+. c #796257",
"@. c #47596B",
"#. c #495B78",
"$. c #72586A",
"%. c #55626B",
"&. c #77686A",
"*. c #767473",
"=. c #813F3C",
"-. c #844B46",
";. c #865749",
":. c #945A48",
">. c #865B54",
",. c #985156",
"<. c #85644D",
"1. c #98724E",
"2. c #836453",
"3. c #8A6756",
"4. c #986757",
"5. c #926C5B",
"6. c #96725D",
"7. c #A86955",
"8. c #AC6F55",
"9. c #B7755C",
"0. c #8E5C62",
"q. c #886669",
"w. c #986B66",
"e. c #8C736A",
"r. c #9B7865",
"t. c #887477",
"y. c #997676",
"u. c #A76B68",
"i. c #A77867",
"p. c #B77B68",
"a. c #A47875",
"s. c #B37576",
"d. c #C47B68",
"f. c #A98633",
"g. c #D3AC31",
"h. c #DCB837",
"j. c #E2BC31",
"k. c #FDD30B",
"l. c #F6CD19",
"z. c #FCD214",
"x. c #FDD31A",
"c. c #ECC62A",
"v. c #F5CC27",
"b. c #FDD42A",
"n. c #EBC435",
"m. c #F4CB3B",
"M. c #FDD53A",
"N. c #988B5E",
"B. c #AE9350",
"V. c #BAA350",
"C. c #99826E",
"Z. c #A6846B",
"A. c #B88565",
"S. c #B7936F",
"D. c #AA867A",
"F. c #B88778",
"G. c #B79377",
"H. c #C39E56",
"J. c #CEA953",
"K. c #E3BB4A",
"L. c #C8866A",
"P. c #D38C6E",
"I. c #CA8874",
"U. c #D38E76",
"Y. c #C8927A",
"T. c #D89679",
"R. c #E29C7D",
"E. c #CDA970",
"W. c #E3AB77",
"Q. c #F0C948",
"!. c #FDD644",
"~. c #FDD74C",
"^. c #FDD753",
"/. c #FDD85D",
"(. c #FDD962",
"). c #FDDA6C",
"_. c #FAD771",
"`. c #516885",
"'. c #5C708B",
"]. c #66778D",
"[. c #7E6F9F",
"{. c #6B7C93",
"}. c #92768B",
"|. c #AA788F",
" X c #987BA7",
".X c #A57DA1",
"XX c #79879B",
"oX c #978889",
"OX c #958D95",
"+X c #A88787",
"@X c #B58987",
"#X c #B68D90",
"$X c #B79798",
"%X c #8995A4",
"&X c #979EA8",
"*X c #B89DA2",
"=X c #9BA4B0",
"-X c #B5AFB0",
";X c #CC8D89",
":X c #C6978A",
">X c #D69985",
",X c #C89A95",
"<X c #D69C95",
"1X c #E29D81",
"2X c #D2A48C",
"3X c #CDA19B",
"4X c #D8A798",
"5X c #E7A689",
"6X c #E9AB96",
"7X c #F1AE98",
"8X c #ECB299",
"9X c #F4B598",
"0X c #CA9AA5",
"qX c #CCAEAB",
"wX c #D9A8A4",
"eX c #D8B1AC",
"rX c #E8B1A7",
"tX c #E9B6A7",
"yX c #F4B4A2",
"uX c #F5BBA7",
"iX c #FABBA4",
"pX c #FBBDAB",
"aX c #E7BAB7",
"sX c #EBBDB5",
"dX c #FAC1AE",
"fX c #EDC2BB",
"gX c #FDC5B3",
"hX c #F0C9B1",
"jX c #FEC8B5",
"kX c #F8C4B8",
"lX c #FECCBB",
"zX c #A896D2",
"xX c #B7B4C7",
"cX c #EABED5",
"vX c #BEC3C9",
"bX c #C2C7CB",
"nX c #CDCECF",
"mX c #DADBDB",
"MX c #FCCCC2",
"NX c #F9CBC5",
"BX c #FED3C4",
"VX c #FED3CB",
"CX c #FAD5CE",
"ZX c #FEDACA",
"AX c #FCE3D3",
"SX c #DCDFE1",
"DX c #DDE0E3",
"FX c #E7E8E8",
"GX c #F9F0E8",
"HX c #F4F5F5",
"JX c #F7F7F7",
"KX c #FDFEFE",
/* pixels */
"(.(.(.(.(.(.(.(.(.(.(.(.(.(.(.(.(./.~.~.~.~.~.~.~.~.!.!.M.M.M.M.M.M.M.M.M.M.b.b.b.b.b.b.b.b.b.b.b.z.z.k.k.k.k.k.k.k.k.k.k.k.b._.",
"k.k.k.k.k.k.k.k.k.k.k.k.k.k.k.k.k.k.k.k.k.k.k.k.k.k.k.k.k.k.k.k.k.k.k.k.k.k.k.k.k.k.k.k.k.k.k.k.k.k.k.k.k.k.k.k.k.k.k.k.k.k.x._.",
"k.k.k.k.k.k.k.k.k.k.k.k.k.k.k.k.k.k.k.k.k.k.k.k.k.k.z.v.n.h.h.c.z.k.k.k.k.k.k.k.k.k.k.k.k.k.k.k.k.k.k.k.k.k.k.k.k.k.k.k.k.k.x.).",
"k.k.k.k.k.k.k.k.k.k.k.k.k.k.k.k.k.k.k.k.z.K.J.H.B.1.6.6.[ 5.r.D.S.J.n.z.k.k.k.k.k.k.k.k.k.k.k.k.k.k.k.k.k.k.k.k.k.k.k.k.k.k.x.).",
"k.k.k.k.k.k.k.k.k.k.k.k.k.k.k.k.k.k.k.l.H.r...A _ b A ..C.r.2.Z.G.G.G.S.J.K.l.k.k.k.k.k.k.k.k.k.k.k.k.k.k.k.k.k.k.k.k.k.k.k.x.(.",
"k.k.k.k.k.k.k.k.k.k.k.k.k.k.k.k.k.k.c.B.} b x x B N } A ..Z... .r.2. ...3.i.S.E.n.z.k.k.k.k.k.k.k.k.k.k.k.k.k.k.k.k.k.k.k.k.z.(.",
"k.k.k.k.k.k.k.k.k.k.k.k.k.k.k.k.k.h.| b N N V [ 2.2.` V 2.O. .2.O._  .3.6...Z.G.i.S.J.Q.k.k.k.k.k.k.k.k.k.k.k.k.k.k.k.k.k.k.z.(.",
"k.k.k.k.k.k.k.k.k.k.k.k.k.k.k.k.g.[ V c C b h c N [  .V b 3.2.` ' C ] } 3.} S 3.5.i.Z.G.Q.k.k.k.k.k.k.k.k.k.k.k.k.k.k.k.k.k.z./.",
"k.k.k.k.k.k.k.k.k.k.k.k.k.k.l.f.` _ f f j b k C [ ` 2.3.i.i.w.` `  . .S } S j | 6.r.6.6.A.v.k.k.k.k.k.k.k.k.k.k.k.k.k.k.k.k.z./.",
"k.k.k.k.k.k.k.k.k.k.k.k.k.l.B.5.2.B 3 w g a b C ` ..>.>.i.F.w.] ] 3.4.4.5.>.N h S S 2.3.6.B.z.k.k.k.k.k.k.k.k.k.k.k.k.k.k.k.z./.",
"k.k.k.k.k.k.k.k.k.k.k.k.z.H.3.3.+.f > ; g _ ..3.2.| ;.5.F.i.a.w.3.i.F.Y.F.i.>.k b C _ ....Z.K.k.k.k.k.k.k.k.k.k.k.k.k.k.k.k.z./.",
"k.k.k.k.k.k.k.k.k.k.k.k.J.Z.<.2.e.f ; p C A S ] } >.4.6.F.:X,X:X:X,XrX6X2X:XF.i.Z S ` ` ..6.S.n.k.k.k.k.k.k.k.k.k.k.k.k.k.k.z./.",
"k.k.k.k.k.k.k.k.k.k.k.g.5.6.5.| 3.e w h Z Z Z ] 6.F.:X>X2X4XtXsXsXfXkXkXuX4X4X<Xw.b Z ` S S Z.S.v.k.k.k.k.k.k.k.k.k.k.k.k.k.z./.",
"k.k.k.k.k.k.k.k.k.k.j.<.;.<...| V > a k D 4.u.p.;X4XyXuXgXgXjXBXMXBXBXMXBXdXtX8X:X..b _ ` ` <.i.W.k.k.k.k.k.k.k.k.k.k.k.k.k.z./.",
"k.k.k.k.k.k.k.k.k.v.1.<.<.S ..C e w k :.p.T.5X8XuXjXjXjXlXBXBXBXBXZXZXVXVXVXfXtX4Xa.A V _ _ >.2.G.b.k.k.k.k.k.k.k.k.k.k.k.k.z./.",
"k.k.k.k.k.k.k.k.k.g.3.<.S k V c w a :.L.T.6X8XuXjXlXlXlXlXlXlXlXMXBXVXVXVXCXNXsX4XF.' c b { 2.5.Z.K.k.k.k.k.k.k.k.k.k.k.k.k.z./.",
"k.k.k.k.k.k.k.k.k.f.3.| N g g g h D 9.U.5X7XuXdXdXgXgXgXlXjXgXlXlXMXVXVXVXCXVXsXwXF. .f x ( ` 2.r.A.k.k.k.k.k.k.k.k.k.k.k.k.z./.",
"k.k.k.k.k.k.k.k.l.5.} S g p t e c -.9.P.1X6X9XiXiXiXpXpXgXpXpXgXjXlXMXNXVXVXVXfXrXF.' f c B [ C >.Z.j.k.k.k.k.k.k.k.k.k.k.k.z./.",
"k.k.k.k.k.k.k.k.h.<.| b p g 3 s h :.L.P.5X6X8X7X9XyXyXiXpXdXdXgXgXjXMXMXVXVXVXNXaX:X' p x f { V  .r.B.k.k.k.k.k.k.k.k.k.k.k.z./.",
"k.k.k.k.k.k.k.k.V.<.S g 4 f 3 g p :.L.T.5X5X7X7X7XyX9X9XiXdXgXjXjXjXlXMXMXVXVXNXaX,X' f t x B _ S 5. .c.k.k.k.k.k.k.k.k.k.k.z./.",
"k.k.k.k.k.k.k.l.<.| j 5 p t > e 3 7.P.T.R.5X9X9XiXpXuXuXiXpXgXgXlXlXlXBXBXVXMXNXsX,X' f w [ f V b ..` J.k.k.k.k.k.k.k.k.k.k.z./.",
"k.k.k.k.k.k.k.h.| S 4 3 p 3 3 3 4 9.T.R.5X7X9X9XuXpXiXuXyXyXuXpXgXlXMXBXBXZXVXNXsX,X' c e [ V V c ` | E.k.k.k.k.k.k.k.k.k.k.z./.",
"k.k.k.k.k.k.k.H.D k 3 2 w q > e g A.R.5X7X9X7X6X7XyXuXyXyX7X6X6XrXrXtXsXsXfXNXNXsX3X..( w g ` _ h x { :XM.k.k.k.k.k.k.k.k.k.z./.",
"k.k.k.k.k.k.k.1.S g ; 3 w w > g m L.5X9X8X6X5X>X>X5X7X6X6X6X>XF.F.a.w.a.D.@X#X3XaX4X5.A x 3 h c p h  .D._.k.k.k.k.k.k.k.k.k.z./.",
"k.k.k.k.k.k.z.1.S 5 ; 3 w q q h D L.T.>XY.F.p.p.p.d.U.>X4X>XF.4.;.] >.w.@X@X+Xa.,XwXa.( N g g p h s C Z.E.k.k.k.k.k.k.k.k.k.z./.",
"k.k.k.k.k.k.c.| j e ; q 3 3 t j D ;.;.;.] D m D -.:.9.I.>X;Xu.;.-.4.w.q.q.t.}.*.&.t.&.X.9 f f s f x _ 5.Y.z.k.k.k.k.k.k.k.k.z./.",
"k.k.k.k.k.k.j.S p 3 ; 2 3 w e j n n | >.5.w.>.] M D 7.T.rXwXa.' ( ' o.e.+X$X*X*XoXy ( L 0 7 f x f b `  .:Xm.k.k.k.k.k.k.k.k.z./.",
"k.k.k.k.k.k.g.b 4 3 3 > 3 w w e s s ( ' ' L z L L L >.>XeX+XX.O.] $.$.) $.[..X$X*X( p.;.r % q x g b ` C G.K.k.k.k.k.k.k.k.k.z./.",
"k.k.k.k.k.k.f.j p p w ; 3 e : : b ] >.' l y z $.$.>.l 6 y 0 y.u.w.|. Xq.OXzX}.a.#X&.2Xw.s % ; x f g } N ..E.k.k.k.k.k.k.k.k.z.^.",
"k.k.k.k.k.k.f.p k 5 3 3 3 q & q S ] m l ' ' O.}.|.u.] ] 3Xq.D.;XF..X.Xy.#XxXqXrXhX+XsX@X( : q c h p A [ V r.x.k.k.k.k.k.k.k.z.^.",
"k.k.k.k.k.k.F k p 4 3 3 3 t $ r ] ;.-.;.4.w.w.|.|.L.;.>XAXfXw.tXrXwX:XY.0XcXNXBXBX$XsX,X{ q t c b V V ..C 2.Q.k.k.k.k.k.k.k.k.~.",
"k.k.k.k.k.l.Z b h s 3 3 e s * q 4.8.9.i.i.i.s.;X>XT.D 9XAXZX@X4XpXpXpXiXdXlXBXBXfX,XsX3XO.s x t C ' h | } _ J.k.k.k.k.k.k.k.k.!.",
"k.k.k.k.k.j...N p 4 3 w c q * q 4.A.I.Y.T.R.5X7X5XI.i.iXAXAXMXy.rXpXgXjXjXjXlXaX#XaXsX3X .f x s C { c } S A Z.c.z.k.k.k.k.k.z.Q.",
"z.k.k.k.k.J.} p < 3 3 w b : $ k ] L.5X9X9X9X9XiX6X;.R.pXZXZXVXsX+X@X,X3X3X,X,XeXNXNXaX:X` s e [ c _ c [ ..2.C.B.j.z.k.k.k.z.c.H.",
"c.z.k.k.k.B.S p 3 4 3 4 b ; $ D -.u.>X8X9X8X2XF.4.>X5X5XuXsXkXMXlXI.I.>X8XuXkXNXfXaXeX@X .s s B s h  .b b | >.*.B.h.l.l.l.n.V.*.",
"B.h.v.l.l.F k s w < < 3 k 3 $ D 9.L.U.Y.Y.T.T.U.d.R.9.p.;X3X,X@XwX<Xd.U.6XtXsXsXaXaXeXD. .f f > t x V [ ` m 3.C.%.N.V.V.V.N.&./ ",
"@.N.B.V.B.C p p w > > ; h w * D 9.P.T.R.T.T.I.9.9.:.n -.u.@Xy.>.u.<X6X;X>XrXaXaXsXaXeXD.{ z g > e h x ` ] A | C.R ! @.%.@.Q E ^ ",
"R ! Q @./ Q V e 3 > ; ; e p 3 n 8.L.P.T.T.T.U.P.1X7.M m ] q.O.q.|.rXtX4X;X<XwXaXaXaXeXD.{ s w = e p x b C } ..r.#.Y T R T Y Y ^ ",
"Y Y Y Y Y Y ) e > 3 > > 3 w w j 7.L.P.U.U.P.d.U.T.7.] a b a l L q.#X:X:X:X;X,X3XeXeXqXa.o.t q > w f z b V _ A 2.&.Y Y Y Y Y Y ^ ",
"Y Y Y Y Y Y R u ; > < 2 ; ; q w :.8.p.L.L.9.8.A.7.D j a p d d b ' O.O.O.y.D.:X$X0XqX$Xy.( s e < 3 w f h _ V V `  .%.Y Y Y Y Y ^ ",
"Y Y Y Y Y Y Y U > > < ; ; ; 3 3 -.7.8.9.7.:.D S Z m a d >.p.4.] O.O.' c ( q.@X#X$X$X#Xe.z f s e w f s g C x b A  .O.W Y Y Y Y ^ ",
"R Y Y Y Y Y Y Y J > 3 3 t w < , n :.7.4.:.D p p j b b -.u.s.u.0.0.>.' r r ( D.+XoX+Xy.o.z f w x e t s b c b _ ` N ..t.Y Y Y Y / ",
"'.W Y Y Y Y Y ~ ].1 > > 3 > * ; 5 D :.:.-.j ; ; a d m M -.,.,.u.a.a.q.L w f q.oXt.t.o.( r r > q s w w c c h g b c N G.#.T R ^ XX",
"xX{.^ R R T ^ XXOX; * > $ - $ * > n | -.D p ; < d =.7.d.;X;X<X,X,X0X*Xe.f s o.t.o.( z f q : : w r w h x f h e h  .c D.OX`.'.%XbX",
"FXbX%X{.].XX&XbX( ; * > ; * ; ; * e b Z b p > h ;.7.7.p.s.s.|.#X$X$X#Xq.z q z ( z u t r q : : w 2 q : q q t t p ..b D.qXxXvXmXHX",
"KXHXDXbXvXnXFX-X5 ; * e e 3 q $ O > p a p 3 > d D ] D m c z c o.O.w.y.O.z 9 t t r 9 q r 1 : - - q 1 - > 2 q q t s A Z.nXHXHXKXKX",
"KXKXKXHXHXHXFXb 3 < ; ; * * $ # . $ 3 3 > ; * 4 a j a s q q a b ' O.O.( z 9 r q r : q 9 : *.o O - - - 2 > q q r r ..G.qXKXKXKXKX",
"KXKXKXKXKXKXOXi j p 3 ; $ $ . . . # - ; - $ $ * > 4 a w w c Z m O.O.( f q 9 r 9 9 : 9 : OXmXo . X $ ; 9 2 > e x r e.eXqXKXKXKXKX",
"KXKXKXKXKXmX, 4 a 5 w 3 : * O o   o $ $ $ $ $ * ; 2 w g h A m b ( ( f r 9 9 q 9 9 & : *.HXmX. # . O ; : : > w f q B hXCXKXKXKXKX",
"KXKXKXKXHX&.x ; < e > * $ $ o O . . o o $ $ $ $ : 2 q s f c h t t z 9 9 : : 9 : : & ) FXKXFX$ $ O $ * * * ; 3 w V q :XAXKXKXKXKX",
"KXKXKXKXOXN c 4 3 * $ o o . . O .   . o $ $ O $ & : ; 2 3 q 9 : : 1 & 1 : & : & % y mXKXKXFX$ $ $ $ $ ; > 2 q s c r D.GXKXKXKXHX",
"KXKXKX-X3 > t w ; O o . . O o $ .   . o $ # $ $ $ $ $ & $ - : : : $ % & & % % % & -XKXKXKXFXO $ $ $ $ q r q r f c f Z.HXKXKXHXSX",
"HXKXmXC > x c 2 ; O # . o $ o $ .   u bX( # # O $ $ # $ $ $ # $ & % # & % # % % @.=XmXHXKXFXo $ $ * $ t s w q f C V +.KXKXHXmX=X",
"bXmX+.e t h [ 2 - O $ o # $ o # . 0 nXFX-Xy . . # o o o @ # . # # % # # # # % G Y `.%XbXFXSX$ $ $ $ $ q c f t : w B b nXSXnX&X`.",
"{.&X*.f t ( w > ; $ o o $ . # . # &XxX=X{.! 6 . . o .   @ # . # . # $ # # & u P Y Y ^ {.%X%X$ $ $ $ - ; 2 f f ; 2 z c }.XX{./ ^ ",
"R #.{.{.) z u 3 : $ o   .   # 6 @.].'.^ Y Y I 0 $ . . o @ # # % # # $ & J H T Y Y Y Y Y Y P 8 @ # - - $ : : 2 : : : t X.P Y Y ^ ",
"Y Y Y Y Y Q ) 0 $ $ o .   + G P Y Y Y Y Y Y Y U H G 6 $ $ $ : 9 ; 0 H I Y Y Y Y Y Y Y Y Y Y Y 8 & : $ % : : : : : 0 H R Y Y Y ~ ",
"Y Y Y Y Y Y Y Y I H 8 @ G P Y Y Y Y Y Y Y Y Y Y Y Y Y K H y r J U Y Y Y Y Y Y Y Y Y Y Y Y Y Y Y G % % % & % $ 0 H P Y Y Y Y Y ~ ",
"Y Y Y Y Y Y Y Y Y Y Y P Y Y Y Y Y Y Y Y Y Y Y Y Y Y Y Y Y Y Y Y Y Y Y Y Y Y Y Y Y Y Y Y Y Y Y Y Y G 6 6 6 6 H P Y Y Y Y Y Y Y ~ ",
"Y Y Y Y Y Y Y Y Y Y Y Y Y Y Y Y Y Y Y Y Y Y Y Y Y Y Y Y Y Y Y Y Y Y Y Y Y Y Y Y Y Y Y Y Y Y Y Y Y Y G 6 H P Y Y Y Y Y Y Y Y Y ~ ",
"Y Y Y Y Y Y Y Y Y Y Y Y Y Y Y Y Y Y Y Y Y Y Y Y Y Y Y Y Y Y Y Y Y Y Y Y Y Y Y Y Y Y Y Y Y Y Y Y Y Y Y P Y Y Y Y Y Y Y Y Y Y Y ~ ",
"Y Y Y Y Y Y Y Y Y Y Y Y Y Y Y Y Y Y Y Y Y Y Y Y Y Y Y Y Y Y Y Y Y Y Y Y Y Y Y Y Y Y Y Y Y Y Y Y Y Y Y Y Y Y Y Y Y Y Y Y Y Y Y ~ ",
"Y Y Y Y Y Y Y Y Y Y Y Y Y Y Y Y Y Y Y Y Y Y Y Y Y Y Y Y Y Y Y Y Y Y Y Y Y Y Y Y Y Y Y Y Y Y Y Y Y Y Y Y Y R R R R R R R R R R ^ ",
"E E E E E E E E W W W W W W W W W W W W ~ ^ ^ ^ ^ ^ ^ ^ ^ ^ ^ ^ ^ ^ ^ ^ ^ ^ ^ ^ ^ ^ ^ ^ ^ ^ ^ ^ ^ ^ / #.`.`.`.'.'.'.'.'.'.'.'.]."
};
