/* XPM */
static char *c99aceb49b5e4689c0fd655ff67dae7ds29ROciZWkIMGyj1[] = {
/* columns rows colors chars-per-pixel */
"64 64 247 2 ",
"   c #0E0C0B",
".  c #130E0C",
"X  c #180F0D",
"o  c #15110E",
"O  c #1A120E",
"+  c #161210",
"@  c #1C1512",
"#  c #1E1815",
"$  c #1E161A",
"%  c #211613",
"&  c #231A15",
"*  c #2A1B16",
"=  c #27171A",
"-  c #251C19",
";  c #2A1E1B",
":  c #321E1A",
">  c #351D18",
",  c #27211D",
"<  c #2C221D",
"1  c #34221C",
"2  c #3B251D",
"3  c #321D22",
"4  c #2D2322",
"5  c #322522",
"6  c #3C2422",
"7  c #352A24",
"8  c #3B2B24",
"9  c #3A2C2A",
"0  c #3D3128",
"q  c #352E33",
"w  c #451C19",
"e  c #42231D",
"r  c #45291E",
"t  c #4F2919",
"y  c #782316",
"u  c #442B23",
"i  c #4C2C26",
"p  c #462928",
"a  c #562D26",
"s  c #43312A",
"d  c #49352A",
"f  c #4C332C",
"g  c #52342C",
"h  c #583629",
"j  c #4F2A33",
"k  c #473734",
"l  c #4C3C33",
"z  c #553736",
"x  c #543D33",
"c  c #5C3B32",
"v  c #6E342B",
"b  c #66392C",
"n  c #73392A",
"m  c #633C33",
"M  c #6C3D33",
"N  c #643A39",
"B  c #6D5112",
"V  c #4F4138",
"C  c #584339",
"Z  c #74492F",
"A  c #674538",
"S  c #744335",
"D  c #794637",
"F  c #7B4D3C",
"G  c #7D513C",
"H  c #273851",
"J  c #57335A",
"K  c #2A4669",
"L  c #554A4D",
"P  c #674C44",
"I  c #784B44",
"U  c #6B5448",
"Y  c #785748",
"T  c #765D51",
"R  c #7C6043",
"E  c #7B6458",
"W  c #5A586D",
"Q  c #6F6977",
"!  c #951B1C",
"~  c #B01C20",
"^  c #8B392F",
"/  c #DC1E27",
"(  c #E21E28",
")  c #E22327",
"_  c #E22129",
"`  c #E2352E",
"'  c #8C750D",
"]  c #91422D",
"[  c #9F522C",
"{  c #874939",
"}  c #954837",
"|  c #8B533B",
" . c #92543D",
".. c #9A583C",
"X. c #C85421",
"o. c #E34427",
"O. c #E44B26",
"+. c #E45325",
"@. c #E55B24",
"#. c #E76824",
"$. c #E87723",
"%. c #874E44",
"&. c #845343",
"*. c #8A5645",
"=. c #845B4C",
"-. c #8C5C4D",
";. c #975946",
":. c #945C4B",
">. c #8A5B51",
",. c #975C54",
"<. c #A65C46",
"1. c #A45D53",
"2. c #9C6244",
"3. c #98624B",
"4. c #896756",
"5. c #936253",
"6. c #9C6453",
"7. c #916C57",
"8. c #9A685A",
"9. c #A36344",
"0. c #A5664A",
"q. c #AC644B",
"w. c #AC6A4C",
"e. c #B4684C",
"r. c #B3714E",
"t. c #A76956",
"y. c #B56C55",
"u. c #AB7257",
"i. c #B57354",
"p. c #BB7553",
"a. c #B4765C",
"s. c #BA745C",
"d. c #BC7A5B",
"f. c #886D69",
"g. c #AA6C64",
"h. c #A97462",
"j. c #B67865",
"k. c #BC7B63",
"l. c #C67A5A",
"z. c #C47C5A",
"x. c #D57752",
"c. c #E2605F",
"v. c #C27B65",
"b. c #B6970B",
"n. c #A8872A",
"m. c #EB8A1E",
"M. c #EE9B1C",
"N. c #F09A1F",
"B. c #D3B109",
"V. c #F6BE0F",
"C. c #EDA319",
"Z. c #F2AD16",
"A. c #F1A41A",
"S. c #F5B515",
"D. c #F5BA12",
"F. c #EB8521",
"G. c #EE9122",
"H. c #DAA930",
"J. c #EFC80F",
"K. c #F9CC05",
"L. c #F9C40E",
"P. c #FACA0B",
"I. c #FFD601",
"U. c #FED509",
"Y. c #F9C411",
"T. c #F5CE32",
"R. c #AB8F46",
"E. c #BC8269",
"W. c #BD8877",
"Q. c #CF994F",
"!. c #C8845D",
"~. c #C48463",
"^. c #C88568",
"/. c #CD8B6B",
"(. c #D58B68",
"). c #DC936C",
"_. c #D9946C",
"`. c #C88A75",
"'. c #D38D75",
"]. c #C99377",
"[. c #D89577",
"{. c #DC9B7B",
"}. c #E1956F",
"|. c #E39A77",
" X c #D7A17C",
".X c #E5A27C",
"XX c #E6C158",
"oX c #6F37A4",
"OX c #305988",
"+X c #2E6193",
"@X c #0078BF",
"#X c #0578BF",
"$X c #1578BD",
"%X c #3374B2",
"&X c #536B94",
"*X c #6D7593",
"=X c #4A78AF",
"-X c #0678C0",
";X c #217CC0",
":X c #857D8B",
">X c #6586AA",
",X c #2C81C1",
"<X c #3883C2",
"1X c #4988C3",
"2X c #558DC6",
"3X c #729CC9",
"4X c #9C9393",
"5X c #C69884",
"6X c #DA9B83",
"7X c #E29D82",
"8X c #C9A088",
"9X c #DDA385",
"0X c #E3A383",
"qX c #EBA686",
"wX c #E5A58B",
"eX c #E4AA8D",
"rX c #EAAA8D",
"tX c #E8A993",
"yX c #ECAC93",
"uX c #F1AC90",
"iX c #EDB198",
"pX c #F3B59B",
"aX c #F3B79C",
"sX c #C9BAB6",
"dX c #F6BCA3",
"fX c #F7BAA4",
"gX c #EEB8B7",
"hX c #FAC2A9",
"jX c #FDC8B4",
"kX c #EAD4B3",
"lX c #8EACCF",
"zX c #98B7DA",
"xX c #A2B4CE",
"cX c #A6BCD9",
"vX c #AFC3DD",
"bX c #BBC8DD",
"nX c #D3CDCB",
"mX c #F2D9D3",
"MX c #FBF1D6",
"NX c #CCD8E7",
"BX c #DAE4EE",
"VX c #DFE9F2",
"CX c #EBE7E5",
"ZX c #EDEBEE",
"AX c #F5F5F4",
"SX c #FAF8F5",
"DX c #FDFEFD",
/* pixels */
"@X@X@X@X@X@X@X@X@X2XbXbXbXbXbXbXbXbXbXbXbXbXbXbXbXbXbXbXbXbXbXbXbXbXbXbXbXbXbXbXbXbXbXbXbXbXbXbXbXbXbXbXbXbX1X@X@X@X@X@X@X@X@X@X",
"@X@X@X@X@X@X@X@X@XcXDXDXDXDXDXDXDXDXDXDXDXDXDXDXDXDXDXCXnXnXnXnXnXmXCXCXCXCXAXDXDXDXDXDXDXDXDXDXDXDXDXDXDXDXcX#X@X@X@X@X@X@X@X@X",
"@X@X@X@X@X@X@X@X@XVXDXDXDXSXAXAXAXAXAXAXAXAXCXnXsX4XP x C C T T Y U U E 4.f.7.4XnXCXAXAXAXAXAXAXAXAXAXDXDXDXBX#X@X@X@X@X@X@X@X@X",
"@X@X@X@X@X@X@X@X2XDXDXDXDXcX#X@X@X@X@X#X*Xf.4.U U U L s s x U P U C x V C T T U E E Q *X=X-X-X-X-X#XcXDXDXDXDX1X@X@X@X@X@X@X@X@X",
"@X@X@X@X@X@X@X@XcXDXDXDXDXVX-X@X@X@X%XQ Y A C C l l - 5 8 l x C 0 8 s 8 k C U P A T T T 7.:X%X@X@X-XVXDXDXDXDXcX#X@X@X@X@X@X@X@X",
"@X@X@X@X@X@X@X@XBXDXDXDXDXDX2X@X@X=XE E U d d s 7 - ; 7 l l d s 4 5 < 5 9 k k V d l l C U E E &X@X1XDXDXDXDXDXBX-X@X@X@X@X@X@X@X",
"@X@X@X@X@X@X@X1XDXDXDXDXDXDXcX#X=X4.Y C 8 5 5 < % X % < 5 < < 4 - - < < 7 9 < < < < 7 l V L P T Q xXDXDXDXDXDXDX1X@X@X@X@X@X@X@X",
"@X@X@X@X@X@X@XcXDXDXDXDXDXDXVX#X&XA x 1 % @ - @ o + + @ . @ ; - - - < ; - # & - - < 7 k k 9 x U T E nXDXDXDXDXDXcX#X@X@X@X@X@X@X",
"@X@X@X@X@X@X@XBXDXDXDXDXDXDXDX2XW s 1 @ @ X O o . o . . o O @ @ @ & % - @ o + # - 5 0 5 ; < 0 s s V C nXDXDXDXDXBX-X-X-X@X@X@X@X",
"@X@X@X@X@X@X@XzXzXzXzXzXzXlX*XA C < @ o O X o . . . . O O @ & O O O O o       o & - - & & & - - < 0 l L lXlXlXlXlX-X@X-X@X@X@X@X",
"@X@X@X@X@X@X@X@X@X@X@X@X#XL C x d O @ o X . o . O % * * * 1 u f 6 1 * % O o + @ @ @ @ @ @ @ @ @ # - 7 C 4X#X-X-X@X-X@X@X@X@X@X@X",
"@X@X@X@X@X@X@X@X@X@X@X@X&Xu x C s o o o X O * e h M S D S F &.&.I A m h u 1 & @ O o . . o O @ @ @ - - 0 4.%X@X@X@X@X@X@X@X@X@X@X",
"@X@X@X@X@X@X@X@X@X@X@X%XT C V l < o @ @ r S  .9.e.r.i.d.!./.].a.j.u.t.t.6.*.S p : % O . o o # @ # @ < 8 l &X@X@X@X@X@X@X@X@X@X@X",
"@X@X@X@X@X@X@X@X@X@X@X:XA C l l - O 1 b 0.z.~.(.(._._.{.{.9XeX9X{.].'.].[./.d.:.S a : @ @ + @ o @ @ ; s s L @X@X@X@X@X@X@X@X@X@X",
"@X@X@X@X@X@X@X@X@X@X@Xf.x l V 0 @ 2 D i.(.).).|.|.0XwXwXwXwXeXeXwX9X0XtXtXwX[.^.t.&.m u % . o o @ 4 5 0 8 d %X@X@X@X@X@X@X@X@X@X",
"@X@X@X@X@X@X@X@X@X@X$XR s d 5 < 1 { d.(.).}.|..XqXrXyXyXrXeXeXeXyXyXeXtXtXwX7X{./.a.6.%.i @ . . o # # % - < +X@X@X@X@X@X@X@X@X@X",
"@X@X@X@X@X@X@X@X@X@X=XC 5 8 * - A p._.).).}.|.|.qXqXrXrXyXrXrXrXrXrXwXwXwXwX7X{.[./.k.t.F 1 O       o # @ ; OX@X@X@X@X@X@X@X@X@X",
"@X@X@X@X@X@X@X@X@X@X&Xs 8 8 * 8 *.!.).).).}.|..XqXuXyXyXyXrXrXeXrXyXyXyXyXwX0X|.{.[.`.v.0.h & . o @ @ & % < OX@X@X@X@X@X@X@X@X@X",
"@X@X@X@X@X@X@X@X@X@XW 5 ; 4 5 h 3.!.(.).).|..XqXuXaXaXaXiXyXrXyXyXyXpXdXaXiXiXqX{.[.[.^.a.F 1 @ o @ - < - - Q @X@X@X@X@X@X@X@X@X",
"@X@X@X@X@X@X@X@X@X@XL 7 & - 1 h 2.!.(.(.)..XqXuXpXdXhXhXdXpXyXyXpXaXdXhXhXdXaXrX0X{.[./.d.*.i * % - ; 7 < - W @X@X@X@X@X@X@X@X@X",
"@X@X@X@X@X@X-X@X@X%Xd 1 < & & h 0.!.(.(.)..XqXrXpXdXhXhXdXdXfXfXfXfXfXfXdXdXaXrX0X{.[./.d.:.c * ; < 4 < < < L @X@X@X@X@X@X@X@X@X",
"@X@X@X@X@X@X@X@X@X+X1 - < < - A 9.z.(.(.)..XqXqXqXrXyXyXiXiXyXiXiXiXtXwX0X9XwX0X9X{././.d.3.c * * - - - & * d @X@X@X@X@X@X@X@X@X",
"@X@X@X@X@X-X-X-X-XOX& @ & & & M 9.z.!.(.{.{.{.{.[.'.'.'.{.wX7X0X0X[.'./.^.`.'.6X9X{.'.^.a.3.m & # @ # - - & 7 $X@X@X@X@X@X@X@X@X",
"@X@X@X@X@X@X-X-X-XK & & , @ * Z q.p.!.[.[._.^.k.k.k.k.v.^.'.'.'.'.v.a.a.t.u.h.E.`.6X{.^.a.t.F * @ @ + # - # < %X@X@X@X@X@X@X@X@X",
"@X@X@X@X@X@X@X@X@XK % # # o : | e.p.^.a.t.:.&.S h m D ;.s.v.v.k.y.t.:.S m c A Y >.8.E.].u.t.:.2 o o o @ # @ 8 %X@X@X@X@X@X@X@X@X",
"@X@X@X@X@X@X@X@X@Xk @ o @ . e 2.p.p.3.G b i 6 : > 1 i M <.y.y.t.0.:.M i : L x C U f.Y 7.u.u.8.c X . . o - < 7 =X@X@X@X@X@X@X@X@X",
"1X@X@X@X@X@X@X@X$Xd o o + . b w.i.2.m i P f.f.P P i i b | <.1.1.;.D h i p z z g f x U P -.u.t.F % . . . & 9 1 =X@X@X@X@X@X@X<XbX",
"VX,X@X@X@X@X@X@X=Xx o o o o D w.i.F a a a i i u u f e a D <.q.q.;.M g f i i p i f z c N A t.6.&.1 . . + @ 7 L @X@X@X@X@X@X2XZXDX",
"DXBX,X@X@X@X@X@X$Xu o . . &  .e.;.D M a h b c p 6 > p j D 5X6X8Xh.m g i u u s l z J oXP I -.t.;.u . . . o 5 &X@X@X@X@X@X<XZXDXDX",
"DXDXBX;X@X@X@X@X@XH o o . 1 2.r. . .D a a 6 & % * 3 j J 5. .k.k.-.A c i 6 5 = 4 5 z J N I 7. X8XU . . . o < +X@X@X@X@X@XNXDXDXDX",
"DXDXDXBX<X@X@X@X@XK o o . =.].E.9.| v a w 6 @ $ < 6 6 N M w.rXiXj.g A p 6 9 = 4 q k p z I I 5.,.g o o o o q $X@X@X@X@XlXDXDXDXDX",
"DXDXDXDXVX1X@X@X@XOXo o o s :.;.0. .{ { { v a a j g N I b ^.aXdX6Xg N m h c j z z N N N I Y 3.3.g @ o o o >X@X@X@X@X<XZXDXDXDXDX",
"DXDXDXDXDXZX3X#X#X&X@ O # 1 ;.2.p.r.0...{ D M M M M D m D ).fXjXiXI c M M M S I I %.>.8.8.-.u.t.i @ . o q ZX3X@X@X$XNXDXDXDXDXDX",
"DXDXDXDXDXDXSXvXvXnXb O @ %  .9.~.d.i.0.;. . .:.:.,.t.*.i.).aXjXtXt.S { *.*.*.%.>.,.g.j.E.8.k.u.g O o o 4XAXDXNXvXVXDXDXDXDXDXDX",
"MXDXDXDXDXDXDXDXSXj.9.S > % | r.i.d.p.d.z.!.~.^.^./.`.*.(.).uXjXtX`.D t.i.i.a.a.E.`.`.`.E.h.^.u.g @ 1 i -.W.DXDXDXDXDXDXDXDXDXDX",
"I.kXDXDXDXDXDXDXCX} ] ..n * | i.2.d.z.~./.[.{.{.{.{.a.w._.[.uXfXiX9Xt.:.d.~./.[.{.6X6X].u.`.^.t.f * D &.*.} CXDXDXDXDXDXDXDXDXSX",
"I.A.gXDXDXDXDXDXCX] } .. .r G i.i.3.!./.{..X0X.X{.a.{ ~.(.).qXaXiX6X`.;.t.~./.{.eXeX6XE.].^.E.t.u 8 -.-.*.^ nXDXDXDXDXDXDXDXmXT.",
"U.o._ CXDXDXDXDXCX[ p.!.9.a A u.i.i.u.E.{..X{.^.t.{ <.(.(.(.qXpXyX6X6Xt.s.k.j.j.`.].].6X].E.j.8.1 c -.-.:.^ sXDXDXDXDXDXDXgXo.K.",
"C.( ( c.DXDXDXDXAXe.z.z.| a c u.i.d.~.^.k.E.a.s.<...e.}.|.(.|.7X6X[.'.v.q.y.v.v./.'.[.'.`.j.h.5.* A %.5.u.^ nXDXDXDXDXDXgX_ ( M.",
"O.( ( _ gXDXDXDXSXl.p...v t h 0.i.i.y.e.p.l.p.q.q.<.e.l.p.q.y.1.t.6.:.u.;.1.1.t.u.j.g.j.j.h.h.=.2 F n { t.<.mXDXDXDXDXmX_ ( ( ` ",
"#.( ( ( _ CXDXDXDX~.q.] ] { i 2.r.i.q.<.q.y.y.y.q.<.<.} v b { { F a b %.%.*.;.,.t.t.6.8.8.g.h.Y d *.{ ^ { y.ZXDXDXDXmX` ( ( ( F.",
"S.( ( ( ( c.mXSXMXv.e.<.p.r.u 2.w.w.w.y.y.s.e.<.<.q.<.v t t b M A b b %.*.:.;.;.:.6.,.5.5.8.h.Y f 8.%.^ ;.v.c.MXMXgX` ( ( ( ( Y.",
"I.#.( ( ( ( m.U.I.x.z.e.^.z.h | 0.w.w.w.y.e.q.<.e.y.y. .n b b c c g m >.5.6.6.:.;.:.5.-.-.5.8.A A 8.%.} a.x.$.U.U.N.( ( ( ( $.U.",
"I.S.( ( ( ) P.I.I.H.E.l.l.l.A | 0.0.w.w.e.y.e.e.i.d.y.;.S h u p 1 * u Y 5.=.=.=.-.:.-.>.>.5.5.C A ;.y.^.`.o.V.I.I.K.` ( ( ( V.I.",
"I.I.@.( ( m.I.I.I.U.j.z.z.p.b F 0.0.0.0.w.w.0.0.t.3.&.m 6 2 * & @ @ - s A A f f A -.5.>.>.4.=.x A j.E.`.k.$.I.I.I.I.N.( ( $.I.I.",
"I.I.S.( ) P.I.I.I.I.Q.~.p.z.n Z 3.2.9.9.0.;.A c A c i 1 % @ @ @ @ + @ % 7 8 ; % 1 &.-.>.=.Y F f c :.g.`.'.D.I.I.I.I.K.` ( D.I.I.",
"I.I.U.@.F.I.I.I.I.I.XXk.y.e.D b &.:.2.9.9.S : * 1 u 2 * @ o % * % & % % 1 - @ o # A -.=.Y U A f I ,.t.j.x.I.I.I.I.I.I.N.#.I.I.I.",
"I.I.I.Z.P.I.I.I.I.I.U.Q.q.w.{ h S &.*.2...a @ @ * u u 1 * * > u 6 9 6 6 u : @ o @ A -.Y P C C u S 5.1.H.D.I.I.I.I.I.I.P.D.I.I.I.",
"I.I.I.Z.P.I.I.I.I.I.I.S.H.R.{ r c h D *.| e O % % > e e w e w e p p p p p i u : * A =.P C x d 1 n.H.T.Y.C.I.I.I.I.I.I.D.C.I.I.I.",
"I.I.U.@.F.I.I.I.I.I.I.#.$.I.J.: f r a D ;.a * > a v {  .;.*.{ %.&.&.&.%.&.Y G A A Y Y A s s s < J.I.I.$.O.I.I.I.I.I.I.$.o.U.I.I.",
"I.I.Z.( _ P.I.I.I.I.S.( _ V.I.B 8 2 e b ;.D a D ;.w.w.0.0.:.:.*.*.-.-.,.,.5.-.*.&.Y A x 8 8 < 1 U.I.L._ ( C.I.I.I.I.L._ _ A.I.I.",
"I.I.@.( ( F.I.I.I.I.#.( ( $.I.b.1 1 2 h |  .{ ..9.0.0.2.| D S S D I &.-.:.:.:.*.-.Y C s 5 - ; Z I.I.F.( ( o.I.I.I.I.$.( ( o.U.I.",
"I.Z.( ( ( ) P.I.I.S.( ( ( _ Y.B.* 1 1 a S  ...9.9.<.;. .{ D S S F { &.*.*.:.:.-.=.I d 5 ; - - R.I.L._ ( ( _ A.I.I.L._ ( ( _ C.I.",
"I.@.( ( ( ( m.I.I.#.( ( ( ( $.I.' - : e b { 2.9.9.<.;.;. .| { { &.:.;.;.:.6.6.5.Y A s ; - - s XXI.m.( ( ( ( O.U.I.F.( ( ( ( O.U.",
"Z.( ( ( ( ( ) P.D.( ( ( ( ( _ Y.C.& 1 1 r F | ;.2.0.w.r.i.s.s.s.k.k.k.j.j.h.8.=.A l 5 ; - - [ A.Y.( ( ( ( ( _ A.P.( ( ( ( ( _ C.",
"@.( ( ( ( ( ( m.#.( ( ( ( ( ( F.$.! & * 1 a A F G 3.u.a.k.k.v.k.j.a.j.j.j.8.Y x 5 < ; ; & ! ( +.F.( ( ( ( ( ( O.F.( ( ( ( ( ( O.",
"o.( ( ( ( ( ( $.+.( ( ( ( ( ( #.@./ y @ O & 1 d f A G &.6.3.6.t.:.*.=.Y P A s 4 - & ; % ~ ( ( +.F.( ( ( ( ( ( +.G.( ( ( ( ( ( +.",
"M.( ( ( ( ( _ D.A.( ( ( ( ( _ D.S.( / y O @ @ & * 1 u g A m A I A m g s 0 8 < # @ @ w ~ ( ( _ Z.P.( ( ( ( ( _ Z.P.) ( ( ( ( _ A.",
"K.o.( ( ( ( $.I.U.+.( ( ( ( #.I.U.@.( / ! O @ o # - % : 6 6 1 8 8 6 ; ; & - - + o B / ( ( ( +.U.I.m.( ( ( ( +.I.I.m.( ( ( ( O.U.",
"I.N.( ( ( _ D.I.I.A.( ( ( _ S.I.I.Z.( ( ( ! X . o @ @ @ & & @ # % & % # # @ # @ b.L._ ( ( _ A.I.I.P._ ( ( _ A.I.I.P.) ( ( _ A.U.",
"I.K.` ( ( $.I.I.I.U.O.( ( #.I.I.I.I.+.( ( @.B.r o o o o o o o o o @ @ + @ o t B.I.I.F.( ( +.U.I.I.I.F.( ( O.U.I.I.I.m.( ( O.U.I.",
"I.I.N.( _ D.I.I.I.I.A.( _ S.I.I.I.I.Z.( _ Z.I.J.B @ . . o o o o o o o o @ ' K.I.I.I.L.( _ A.I.I.I.I.P.( _ M.I.I.I.I.P.) _ A.I.I.",
"I.I.K.` $.I.I.I.I.I.U.O.#.I.I.I.I.I.U.+.+.U.I.I.I.b.' y y ' ' ' b.b.B.X.X.U.I.I.I.I.I.F.O.U.I.I.I.I.I.m.o.U.I.I.I.I.I.m.o.U.I.I.",
"I.I.I.N.D.I.I.I.I.I.I.A.S.I.I.I.I.I.I.Z.Z.I.I.I.I.I.I.S.A.I.I.I.I.I.I.D.A.I.I.I.I.I.I.Y.M.I.I.I.I.I.I.Y.C.I.I.I.I.I.I.P.M.I.I.I."
};
