/* XPM */
static char *result[] = {
/* columns rows colors chars-per-pixel */
"64 64 46 1 ",
"  c #2B2416",
". c #2E2A19",
"X c #322817",
"o c #352D1B",
"O c #392F1C",
"+ c #36301D",
"@ c #3B321E",
"# c #3E3621",
"$ c #3F3922",
"% c #41341F",
"& c #423621",
"* c #443B23",
"= c #4A3D25",
"- c #464027",
"; c #4C4127",
": c #4D4429",
"> c #4F492C",
", c #514227",
"< c #534529",
"1 c #58472A",
"2 c #554A2D",
"3 c #5B4C2E",
"4 c #5E502F",
"5 c #564E30",
"6 c #5B4F30",
"7 c #565131",
"8 c #5D5232",
"9 c #5F5836",
"0 c #614E2F",
"q c #63502F",
"w c #624F30",
"e c #635433",
"r c #6A5633",
"t c #655936",
"y c #6C5A36",
"u c #665C38",
"i c #6D5D38",
"p c #725C36",
"a c #785F37",
"s c #735E38",
"d c #785F38",
"f c #6D603A",
"g c #756139",
"h c #7A623A",
"j c #80663C",
"k c #80683D",
/* pixels */
":ire=prr,prr*rry1<>>2=yr4:etp31rr:*drw&638*eye;3e78:22:2y7g=$232",
"2ire,ppr=377@eye,398r*ype-etpe0pp1*yy6=set*eyt;8tt82883ei7i*>tpe",
"8pie,spq;tu8@qti;qt9e*rsy*yeheeiy<=pye1i8y&epi;eey62yy31s7g=2upw",
"334<=spe@=e2+4yg=3t9r@20=#i3d3*25#=py6=yei#<3e@3et22et*,s7g=2yd6",
"24e;=spro,31@4yg*qytp*22:$yed=*3,O*pi2&p8y=1e3*wtt:@21==y8g=2fg1",
"egi21arq%ppi:2yg1qttg4pgt2rtd&6rr=&ruw=y8t39it:e9t2*eye;i8s=>ih2",
"4is11hqq=ssr-4yf;et9p:8t6<eed*8tu1*pt6:it8<eer::tt2*eeq<uep=5ih2",
"3r4-=hrr=piy;<qq=3e9y:7e::etd=2yu<&w65*s8t13ee*>i82*ie3;e6t&5yh6",
"=-*$=sie%prt11qq;reye@<*o*yep:>yy<:ee2*s7y*%1:+<ye5$i3e=666O6ypw",
"<484,hpe=pgeeeye1e8tr*e3q:rii=:gy12uu2<y9t=4ry::se5*rey6tyt#8ure",
"88er,aee=ppr4287-=eur;yes,8ri=2ft1,te2<yty%eyy*3yr6*twy28e9*3tpr",
"88ir=ayq=pse84if:*uur;yey<err-8ye26si32ity&4ii*8rp5*rei82e8*eepe",
"7ett@1<*&yryq1q0%*utr=feq+;<<+5tt:*33:*iep=3yi#*12=&ywg*.#%X6the",
"2y84<8t42rei<;12$=yeq;yqy2<43=7ey;%r6<$eth<3yi12te:=ieg:18y<2rdy",
":yee3et32rrg<1ry7;ger;feieqre,8ut2=hy8*tyh1<yi23ep3,i8u:18s16rdy",
":it828e32iyg;0yy7:yrr;yqyyegy=8ye8,dte:syh;1ry3rhh0=yrt*6us12udr",
"-te8-32-:yyg<eig2*qe3*iqu6-22@8ee0,aeq*q0e*3ri2@=,==ye8*eyh<=qq1",
"$yy7*33,*yrg10ey43et-%f4y:;0q=3teq,hre<000@2rp,$1,,*ue8=8ts33yt5",
"*ie2-uet=iyg;0ry4279>*i4y:1pt:3yey<he80rpr*1ip23spw=te8*8yy32t82",
"$tee-fre@tpp2rry88gp2*y4i:1pr;eygq;pee3rpp=3ii:4ip3*tee=8yye3yy3",
"&ir7*uyeX40e*qrye@*$o*y8y=5pr=<33*&ae8,q0r=0iy=8pyw@73<*ers=o&*O",
":yr2*up3@3q3@qyy4@-,=%uet*8ss:=3q==aeq%:==o0yy*3pry*30;=9py=*<=2",
"8py8=9ee<rre,qgu>-tyq*uqt=eas8wpd,=py4%4ee-eyt=esrprhdr38pi2wrpp",
"4ist:tyt,psr2epy<*yi8*y8y:3sp76yi<=pye@epi;qye=qypr3tyt1yyi1wrpe",
"3er3-eee-282-qgy7*iyq@tey<7ps61ee*=rre=err*6e8=3trr1er6=trt,eiy0",
":23,-ue8o@**@rrtq*sye@:-<#2rg:o&&@*ry2&ity*=10&0trwO**##ert*eryp",
"4ey2<u48@eys1eg82;see2e86@2rh<3err=ppw=yue<3ey23eee=ew8<3ee:weyp",
"eyr1:tee@rsp2qre:1y8e2uyy#2rh:wtpr=ppe,uyr2rir12tyw=tr8<rw9:08rp",
":32;2teu@qsp=1r8<3eet2yte#2yh2erpr*pye=ute2rdr,etpe<rre<te9*29th",
"o@%X*eeu@esg@*,>@ey8e@==# 5ts:wser&0w=*ytt=&,= 68sw&upwO:::O1erj",
"27r3;etyo4gr2:42-er87@:=1&58y<3rrdetu11rtt#*<6=2epr=yry6ryeO69rp",
"yesr:eyy@3pr3qyy3er98-8ts:>er:0rtdwrr21tey<5ee=69dr:urpe5te#6ep1",
"yere*ee8@err78uf2eit8-8ws=2tp,3irdrhpq3r8i<<8t=0eye*uygreps%eti1",
"eepr$21<@qry-+$@o8tt8*trs-:3e%qprd*&=O=ytg;2yt=:<q3#iyhe#<<oqep1",
"1tyreghp;ere-;,<+8e88*tpr=130*4gis@<,&=y7g22yt;=30==ted<*22*2edr",
"=ty81rpr=eye-4uy<e8t6=yre6eyy1eprp:rrr1y8d26e826tt2-t8g<5ei-1uyh",
"*tet3yre=epi*7qr18ete:ypy668e>2iyp:rpr=dei22te33et2-tth<2yi,3tyg",
"*ye8@22:=qri-7eg1>686*ppyt3t8,2ryp=rpr&65t<2ye2<3t=*t8h<7ei*:21r",
"=te2.--:@rei*4rs<=52::dpg:*32*2rsy=prp=623oeyi;=<<,#yed<8ty*-111",
"=tee-eqe%yey-qei6esy6<yrg23sg<2rdt*prp2pde*eph:3eer*y8y;8ey2qpr0",
"1eee*uee@iei:24p63yu32erg;8pg12ige*dsr1ppp;ryg;0yyr%e8q;9ei2qfy2",
"7ete*iet*rei;28i21e82>yqg>2fg12qy2*dhq<rrp;qri=0err*e3e=8er22ee:",
"ette$yeeo,-3+28e2o::$#yri:2dh=*2<**hp3.@%1%4yp@retr=8eq%4ey*@**@",
"ette*tee-8ee=e4ue#5e<#yyg:7pg3;48**si2*42r;2ry*resrqppr%7tf*2qe;",
"8ter*tte;ere,e894*eye*iiy<8yse3yt2*yp2-49g<3ei*qtir3riq@2eg;3ri=",
"8rtr:ttt2pfr2r992$uye-iet:epp68iy<*py3;84g:2ip*rtiy3erq@28p:qir<",
"2220=uye%=*%@q9u2*eye@311*tpp1:31**ip4*tey--4e@eept+@$*@2eg*,pp2",
"6re<=tre%0-2@qeu4*eur*786*erp@-<2*-pg2*eef21e3-eeg8*e2e;48p,2pe3",
"eyi<,yte,heu:3et3;eyy<873=rra*<ef2=ii5*9ty3err<etg9=i8i=3ep;qye3",
"rsg<,fy4;hey;3yu2;tyg28e8:rra=28t8=ee5*ter3pkp199s8=u8i,29r;4py2",
"#**o=ftw%sqi;18e:=tty-<*@@rys=2ey8*33:*tey;@**o2td6*i7y=;2q*4si;",
"*#===tet@pqt23rr1*tyq@1-**pts32ey8288<<8yd&*:,#2tg7*de8eqre=8yy*",
"7eye1tetoreu13yg1=ee0*et81tth12rrf2ee32ryp=29y=2tg8=setrre8=7re*",
"7tpt;tye@ret33ip<=tee*ue8,y8h30rye4iye2yry*>ep12ui6*gete89t24ry*",
"8ype=780Opet;*=$.&trr*tt8@2<r=0rre<2e20rey&<9d=:9e2*hre::::*ery*",
"eyre*232oryi*%1,*&ter*tte*110%eppq%-<-=grr*29h,*26:&di6o3*1@2py$",
"ryrr6ete%rgf;1sr3=ttr*u98eesr<rrpe=qe8;srp%29gq2ph1*py4=i7h12yp-",
"tpre8rpr@qsi;2pp3=ter:tr8erys2ery4,peq*prr%2ehq2ei2%yye=e7h32pp<",
"yppe1rrr@rsi<3aye&8er=8ee23q2-3re2;s7e@rre$2ty12ye;*pie=y7d,:py:",
"yypto@##orst=3pp6*:;=*et8OO@@o1pr7<s8y%23:@3ty&*2;o*pi4@u9g<*41%",
"erpe=e8p,eit<3pe82ew:*8r9:27r=0pre<se8<ei3@eee=><q<;spe=e9pq298<",
"9er3=red<3gt;3yr0wrr,*tye:8es,edye,pee=epr@qey;48y2;sye;t7py288<",
"8yre=der%wst=ery03sh3;ir9>eea;3sie1yee1ryr%eei:qqr2=spe;e7yy8ye2",
"2py3=prpo=32#eyy2&-=O=ye9:ees==331=yee*21=oeyr*4ee2%e61=u7p3=<;+"
};
