/* XPM */
static char *_c9372d3e4a34ed1975fe7e52c7beb00oEaCB19wlnG25j9g[] = {
/* columns rows colors chars-per-pixel */
"64 64 241 2 ",
"   c #000000",
".  c #0B0705",
"X  c gray5",
"o  c #140D0A",
"O  c #16110E",
"+  c #1C130E",
"@  c #1B1411",
"#  c #181717",
"$  c #2A140F",
"%  c #221613",
"&  c #251915",
"*  c #2C1B16",
"=  c #281A19",
"-  c #2D1D1A",
";  c #361C17",
":  c #311E1A",
">  c #2B211E",
",  c #34241B",
"<  c #34211C",
"1  c #3B241C",
"2  c #262626",
"3  c #2D2523",
"4  c #2E2E2E",
"5  c #342521",
"6  c #3B2522",
"7  c #3C2923",
"8  c #332C2B",
"9  c #3B3128",
"0  c #333333",
"q  c #3D3431",
"w  c #3D3D3D",
"e  c #43241D",
"r  c #4A241C",
"t  c #562B1D",
"y  c #442A23",
"u  c #462925",
"i  c #4C2C24",
"p  c #532C24",
"a  c #582D27",
"s  c #473126",
"d  c #4D322C",
"f  c #53332C",
"g  c #593528",
"h  c #5D352C",
"j  c #4B3A32",
"k  c #593A32",
"l  c #682D25",
"z  c #732D23",
"x  c #63332C",
"c  c #693729",
"v  c #633B2C",
"b  c #75372C",
"n  c #633C33",
"m  c #653A35",
"M  c #6B3D33",
"N  c #733D34",
"B  c #7C3D34",
"V  c #5A4437",
"C  c #5B443A",
"Z  c #6E4734",
"A  c #62443A",
"S  c #68453A",
"D  c #744334",
"F  c #7B4534",
"G  c #73443A",
"H  c #7B483B",
"J  c #484645",
"K  c #564744",
"L  c #545454",
"P  c #585251",
"I  c #5C5C5C",
"U  c #684741",
"Y  c #644C43",
"T  c #6B4D43",
"R  c #744A42",
"E  c #7B4B43",
"W  c #695146",
"Q  c #6D554B",
"!  c #785649",
"~  c #74594D",
"^  c #6A5A55",
"/  c #755B52",
"(  c #7B5D53",
")  c #7E6255",
"_  c #646464",
"`  c #6A6A6A",
"'  c #716C6B",
"]  c #737373",
"[  c #7E7E7E",
"{  c #853D32",
"}  c #82402C",
"|  c #884736",
" . c #834B3D",
".. c #8C4D3A",
"X. c #954A38",
"o. c #8C533D",
"O. c #93523B",
"+. c #9D563C",
"@. c #A84D38",
"#. c #A6573C",
"$. c #834D42",
"%. c #8C4B44",
"&. c #964C42",
"*. c #855345",
"=. c #895547",
"-. c #835449",
";. c #8B5B4B",
":. c #995647",
">. c #9A5B42",
",. c #93544B",
"<. c #935A4C",
"1. c #8C5B52",
"2. c #995B53",
"3. c #A85C45",
"4. c #A95B54",
"5. c #B35C51",
"6. c #86604E",
"7. c #9B624D",
"8. c #846354",
"9. c #82645A",
"0. c #87685A",
"q. c #8C6C5B",
"w. c #946554",
"e. c #9C6452",
"r. c #926E5C",
"t. c #96725E",
"y. c #AC6245",
"u. c #A9654B",
"i. c #B3644B",
"p. c #B56949",
"a. c #B6734F",
"s. c #A86755",
"d. c #AC6C54",
"f. c #B66857",
"g. c #AA725B",
"h. c #BB7453",
"j. c #B6775C",
"k. c #BB725D",
"l. c #8A6D60",
"z. c #8A766F",
"x. c #947363",
"c. c #9B7563",
"v. c #9B7A6A",
"b. c #B86961",
"n. c #A67B68",
"m. c #B87862",
"M. c #BD7B64",
"N. c #C26C50",
"B. c #C47656",
"V. c #C37956",
"C. c #C57C5B",
"Z. c #CC7D5B",
"A. c #D37D5B",
"S. c #C77A65",
"D. c #C57D64",
"F. c #CE766D",
"G. c #9C8573",
"H. c #A4816B",
"J. c #BC856B",
"K. c #A98875",
"L. c #B48A77",
"P. c #BD957C",
"I. c #CB815C",
"U. c #D5875C",
"Y. c #C98265",
"T. c #CA836C",
"R. c #D88767",
"E. c #DD8A64",
"W. c #D3856C",
"Q. c #D48B6D",
"!. c #CC8B71",
"~. c #D68671",
"^. c #D48A73",
"/. c #DB8E74",
"(. c #CD9572",
"). c #DC9275",
"_. c #DB9579",
"`. c #E58E6F",
"'. c #E5956D",
"]. c #E39474",
"[. c #E59A73",
"{. c #E89C75",
"}. c #E59678",
"|. c #E49B7B",
" X c #E99D7C",
".X c #E9A17D",
"XX c #848484",
"oX c #8B8B8B",
"OX c #939393",
"+X c #9A9795",
"@X c #9D9D9D",
"#X c #AC9288",
"$X c #BB9A88",
"%X c #B6A398",
"&X c #A3A3A3",
"*X c #A8A7A6",
"=X c #ACACAC",
"-X c #B5B1AE",
";X c #B4B4B4",
":X c #B9B3B0",
">X c #BCBCBC",
",X c #C29C89",
"<X c #E79D83",
"1X c #C5A48C",
"2X c #D8A28C",
"3X c #C4A392",
"4X c #CBA997",
"5X c #D4B19C",
"6X c #ECA383",
"7X c #ECA788",
"8X c #F0A885",
"9X c #F2AC8C",
"0X c #EEAB93",
"qX c #F3AE92",
"wX c #F7B498",
"eX c #D9B9A5",
"rX c #CABAB1",
"tX c #EBB6A1",
"yX c #F7BCA5",
"uX c #D4C4BD",
"iX c #F5C5B2",
"pX c #C4C4C4",
"aX c #CAC7C7",
"sX c #CBCBCB",
"dX c #D5CBC8",
"fX c #D9D1CC",
"gX c #D4D4D4",
"hX c #DBD5D3",
"jX c #DCDCDC",
"kX c #E5D6CC",
"lX c #E6DAD5",
"zX c #F0E5DD",
"xX c #E4E4E4",
"cX c #EAEAEA",
"vX c #ECECEC",
"bX c #F3EDEA",
"nX c #F8F3EE",
"mX c #F5F5F5",
"MX c #F9F6F4",
"NX c #FDFDFD",
"BX c white",
/* pixels */
"BXBXBXBXBXBXBXBXBXBXBXBXBXBXBXBXBXBXBXBXBXBXBXBXBXBXBXmXOXI L L L L L I L I I I I I I I I I I _ _ _ _ _ _ _ _ _ ` ` ` ` ` ` ` *X",
"BXBXjXxXBXBXBXBXBXxXjXBXBXBXBXBXvXjXBXBXBXBXBXmXgXBXBXmXXX#                         X X X X X X X X X X X X X X X X # # # #   +X",
"BXmXpX>XvXBXBXBXmXsX;XcXBXBXBXBXjX;XxXBXBXBXBXxX=XjXBXmXXX#                                                                   OX",
"BXcX;X*XjXBXBXBXcX>X&XgXBXBXBXmX>X@XpXmXBXBXmXpX@X>XmXmXXX^ v.G.#X3X4XK.V                                                     OX",
"BXBXsXsXmXBXBXBXBXgX>XmXBXBXBXBXjX;XmXBXBXBXBXcX-XlXlXuXeX5X5X4X4X4X5X5XeX4XG.9                                               OX",
"BXBX;X*XvXBXBXBXBXsX@XxXBXBXBXBXjXoXxXBXBXBXBXkXeX5X4X3X$X$X$X$X$X,X3X3X3X4XeXeXl.                                            OX",
"BXmX@X] jXBXBXBXBX;X_ gXBXBXBXBXpXI pXBXBXzXeX5X3X3X$X$XK.K.v.v.9.9.v.K.#X$X3X3X5X3X^ 0 4 4 4 0 0 0 0 0 0 0 0 0 0 0 4 0 0 0 0 +X",
"BXxXXX4 sXBXBXBXcX+X2 >XBXBXBXvX&X2 &XbXeX4X4X,X$X#Xv.Y V W 8.( T k S q.! ( x.#X,X3XeXkXcXcXcXcXcXcXcXcXcXcXcXcXcXcXcXcXcXcXcXmX",
"BXsX_   ;XmXBXBXjX]   @XmXBXBXxX[   $X5X4X1X$XL.v.Q k y V W ( 6.q.8.S A A ( ~ -.x.$X3X4XuXnXBXBXBXBXBXBXBXBXBXBXBXBXBXBXBXBXBXBX",
"BXsX&X;XsXvXmXmXjX@X*XpXxXMXmXxX@X%X1X1X$XL.K.c.R ! A s V ! ) 8.c.K.1.A T ~ ~ Q ! 8.r.$X4XeXzXBXBXBXBXBXBXBXBXBXBXBXBXBXBXBXBXBX",
"BXmXvXmXmXmXjXjXBXvXmXmXmXxXgXBXlX4X$XK.H.H.q.j i f k i n E -.r.,X2XJ.w.m s s C U k k c.$X3X5XnXBXBXBXBXBXBXBXBXBXBXBXBXBXBXBXBX",
"BXBXBXBXBXsXOX=XcXBXBXBXjX+X&XjX1XL.n.c.H.r.A * a =.7.d.m.m.T.2XtXyXyX0X!.e.S n k d s j K.K.$XeXBXBXBXBXBXBXBXBXBXBXBXBXBXBXBXBX",
"BXBXBXBXBXcXpXsXmXBXBXBXvXpXpX5XK.c.t.H.t.x.C G 7.g.g.t.c.q.8.9.9.9.0.l.v.n.n.w.6.G 1 - ~ K.K.,XuXBXBXBXBXBXBXBXBXBXBXBXBXBXBXBX",
"BXBXBXBXBXmX>XgXBXBXBXBXmXsXrXL.c.r.v.t.0.q.8.8.( ( 9.( ) ( ( Q / / / / 0.0.) 0.( 9.! Y C r.K.L.1XzXBXBXBXBXBXBXBXBXBXBXBXBXBXBX",
"BXBXBXBXBXxXoX>XBXBXBXBXcX@X#Xv.r.t.c.6.8.Q ) ! W Y Y C S Y W T Y Y Y W Y Y Q / ( ) 0.9.l.q.c.K.$X1X+X+X+X+X+X+X+X+X+X+X+X+X+X;X",
"BXBXBXBXBXsXI &XmXBXBXBXjXz.H.r.t.r.q.0.) Y Q W T A A T ! ! *.-.-.-.! R T T Q Q ~ Q Q Q 9.0.l.~ H.L.9.                        oX",
"BXBXBXBXBX;X  XXjXBXBXBXsXv.x.x.0.8.~ C Y j Z o.d.I.R._.7X7X7X7X7X7X6X6X_.!.M.s.=.R W Q / / / / c.H.x.                        oX",
"BXBXBXBXmX*XJ _ sXBXBXmX:XH.r.8.8.Q j s y O.U.[.{.{.[.'.{..X6X.X X X X X].}._._.).^.m.<.k j K Q 9.v.c.,                       oX",
"BXBXcXvXvXjXsXpXxXvXcXmXuXv.8.( ~ C : c 3.U.'.{.{.{.[.[.{. X{.{.[.[.[.]./.).)./.).)._._.M.Z 5 3 8 W x.~                       XX",
"BXBXsXsXvXBXBXmXBXgXpXcXfXr.! ( C * N p.U.U.'.{..X X X X6X6X X{.[.].}.].).).)././.).}.|.Q.d.f > > = j (                       XX",
"BXvX>X*XjXBXBXBXmXpX&XgXfXq.! C & c 3.I.U.U.'..X8X8X8X8X9X9X9X7X X X<X<X<X<X|.].).).|.|.Q.D.s.a & > j Y                       XX",
"BXmXpXpXcXBXBXBXmXsX>XxXfX8.S < < ..a.Z.U.U.'..X8X9XqXwXwXwXwXqX9X9X9X9XqX9X8X X{.{..X|.Q.Y.M.*.- > W %XpXpXpXpXpXpXpXpXpXpXpXgX",
"BXBXpX>XvXBXBXBXBXgX=XvXfX! d & x #.V.V.U.U.'.{.8X8X9X9XqXwXwXqXqXqXqXqXqXqXqX7X7X7X7X|.Q.D.k.7.d @ Q uXBXBXBXBXBXBXBXBXBXBXBXBX",
"BXBX*XXXjXBXBXBXBX>X] gXfXV % & F a.V.V.U.U.R.Q._..X|. X X6X7X<X6X6X6X.X6X6X6X7X9X9X7X|.Q.D.k.u.n @ j dXBXBXBXBXBXBXBXBXBXBXBXBX",
"BXvXOXw sXBXBXBXmX&X0 >XfXs + + >.C.C.I.V.+.<.<.7.e.s.d.S.S.W.~.~.R.R.W.~.~././._.<X_./.Q.C.k.s.Z % > hXBXBXBXBXBXBXBXBXBXBXBXBX",
"BXgX]   ;XBXBXBXjXXX  @XgXs > * u.C.C.C.u...H D g i u u h &.i.k.C.B.B.k.f.2.2.1.1.1.w.w.g.M.j.d.D & & cXBXBXBXBXBXBXBXBXBXBXBXBX",
"BXsXoXoX>XvXBXBXjXoXXX;XdX7 % s h.I.V.a.+.O... .F D x p r a | 3.i.f.3.:.N p y 1 u f S R E 7.m.d.*.& 5 BXBXBXBXBXBXBXBXBXBXBXBXBX",
"BXjXsXjXjXcXmXBXxXsXgXrX;.1 & h C.I.V.y.O.| | >.u.7. .c x l B X.3.u.,.H x h p p v M M R E *.g.g.7.< z.BXBXBXBXBXBXBXBXBXBXBXBXBX",
">X;X;X;X;X;X;X;X;X;X;X#Xz p 1 v C.Y.V.3.O.} ..H g p h M a l b #.B.M.,.F M x a M ;.<.$.E E *.e.j.s.K ;X>X>X>X>X>X>X>XpXpXpXpXpXgX",
"_                     t } | r v V.Z.C.p.#...F $.; = f N l b { i.<X<X2.R x p p i d n E E M $.e.g.g.1 .                         [ ",
"_                     g @.i.x v h.I.I.V.a.y.#.3.:...=.| | 3.i.A.yXwXg.1.F c F u & d U h D  .e.j.s.y 1                         [ ",
"_                     7 h.y.a v h.Y.Q.R.I.h.y.3.3.&.&.X.+.p.N.`.iXiXT.<.,.O.:.:.%.=.%. . .=.d.j.e.i p                         [ ",
"`                       h.3.l h h.U.E.'./.R.V.p.y.u.i.h.V.N.R.[.wXyX^.d.s.u.&.O.:.,.,.<.7.d.j.m.;.N 1                         [ ",
"`                       u.i.X.v h.U.R.E.[. X_.W.Y.C.Y.Y.A.A.E.`.wXwXW.k.k.m.f.u.:.:.:.d.k.T.T.M.=. .                          [ ",
"XXI I I L L L L L L L L w.C.3.D h.Z.I.E.'.[.6X7X|.).]./.E.E.`.}.yXiX}.S.S.S.T.S.k.k.k.S.!.!.T.J.E -.J J J J w w w w w w w w w XX",
"sXpXpXpXpX>X>X>X>X>X>X>X;Xj.h.D a.V.Z.R.]. X6X9X9X8X6X{.E.A.`.<XiXiX|.W.T.W.^.Q.^.^.^.^.W.T.D.J.$.%X;X;X;X;X=X=X=X=X=X=X=X=X*XpX",
"BXBXBXBXBXBXBXBXBXBXBXBXBXdXh.F u.p.B.U.E.'.[.6X<X[.R.N.R.`.R.}.0X<X~.F.S.T./._.)././.W.D.k.j.J.<.bXBXBXBXBXBXBXBXBXBXBXBXBXBXBX",
"BXBXBXBXBXBXBXBXBXBXBXBXBXBXJ.D >.a.h.V.Z.A.U.R.Z.i.@.i.A.A.f.i.f.f.5.m.T.4.S.^././.^.^.D.j.g.n.g.bXBXBXBXBXBXBXBXBXBXBXBXBXBXBX",
"BXBXBXBXBXBXBXBXBXBXBXBXBXBXkX .o.a.i.p.a.N.N.p.@.X.y.B.3.| b X.X. .$.2.s.:.&.f.S.S.S.D.M.g.e.g.n.MXBXBXBXBXBXBXBXBXBXBXBXBXBXBX",
"BXBXBXBXBXBXBXBXBXBXBXBXBXBXBX~ H u.y.#.#.y.y.X.X.i.R.W.:.r e x M M i h %.4.&.&.s.f.f.f.j.s.w.w.3XBXBXBXBXBXBXBXBXBXBXBXBXBXBXBX",
"BXBXBXBXBXBXBXBXBXBXBXBXBXBXBX&XZ >.+.+.#.i.X.b :.k.M.s.N a u y y 6 : 6 $.g.4.&.:.3.2.:.7.e.w.K.bXBXBXBXBXBXBXBXBXBXBXBXBXBXBXBX",
"BXmXmXmXmXmXmXmXmXmXmXmXmXmXmX=Xv ..| O.y.+.r h *.=.;.=.G h e < - & - u M <.e.,.&.:.,.*.=.;.=.#XBXBXBXBXBXBXBXBXBXBXBXBXBXBXBXBX",
"sX>X>X>X>X>X>X>X>X>X>X>X>X>X>XOXa c D | 3.c * e t c D D B F x e u e y d n E E M D  .<. .H H E z.gXgXgXgXgXgXgXgXgXgXgXgXgXgXgXjX",
"` 2 2 2 2 2 2 2 2 2 2 2 2 2 2 3 p v c F O.c r t g c b b b { | %.{ N m x x n f 6 7 p =.$.Z n A k 4 4 4 4 4 4 4 4 4 4 4 4 4 4 4 XX",
"_                             o s a g c | | | F $ ; z { >...2.{ %.H N x x x f d < e  .G k k k d                               [ ",
"_                               , s g a F O.O.#.X.l O.j.(.(.1XJ.P.L.n.w.-.f * 6 i h H f u A f -                               [ ",
"_                               + 1 i i v ..O.3.3.#.#.f.k.j.!.J.,XL.n.c.q.f e a M F H 7 6 d y .                               [ ",
"_                                 * 1 1 i F O.3.i.f.N.F.<XS.f.5.f.f.5.4.&.{ |  . . .M - 7 7 <                                 [ ",
"] 0 0 0 0 0 0 0 0 0 0 0 0 0 0 0 0 8 : < 1 h  .+.y.i.i.i.f.S.b.F.F.F.b.4.4.4.2.,.$.G d : 6 < 3 2 2 2 2 2 2 2 2 2 2 2 2 2 2 2 2 XX",
">X=X=X=X=X=X=X=X=X=X=X*X=X=X=X=X=X*XJ < < u h ..y.#...F F | | %.%.%.%.,.2.<.<.-.m s 6 7 7 P oXoXoXoXoXoXoXoXoXoXXXXXoXoXoXoXoX*X",
"BXBXBXBXBXBXBXBXBXBXBXBXBXBXBXBXmXBXpX* < < i  .u.+.| r e i f f u y k M E $.-.S y 7 7 5 ' vXmXmXmXmXmXmXmXmXmXmXmXmXmXmXmXmXmXmX",
"BXBXBXBXBXBXBXBXBXBXBXBXBXBXBXBXBXBXBX[ & & < v >.u.:.c e < ; 1 - - p M G $.E s : < 6 _ mXBXBXBXBXBXBXBXBXBXBXBXBXBXBXBXBXBXBXBX",
"BXBXBXBXBXBXBXBXBXBXBXBXBXBXBXBXBXBXBXxX% * - u =.e.s.=.$.M p k i f m R E E k - > 5 J xXBXBXBXBXBXBXBXBXBXBXBXBXBXBXBXBXBXBXBXBX",
"BXBXBXBXBXBXBXBXBXBXBXBXBXBXBXBXBXBXBXBX*X% % y A ! =. .*.=.*.;.R M N -.-.k 7 % = q jXBXBXBXBXBXBXBXBXBXBXBXBXBXBXBXBXBXBXBXBXBX",
"BXBXBXBXBXBXBXBXBXBXBXBXBXBXBXBXBXBXBXBXmXJ + * 6 C A G G G =.H G M Z -.S y = % @ sXBXBXBXBXBXBXBXBXBXBXBXBXBXBXBXBXBXBXBXBXBXBX",
"BXBXBXBXBXBXBXBXBXBXBXBXBXBXBXBXBXBXBXBXBXaX% + & - y n k k G n n m f j s 5 @ @ >XBXBXBXBXBXBXBXBXBXBXBXBXBXBXBXBXBXBXBXBXBXBXBX",
"sXpXpXpXpXpXpXsXsXsXsXsXgXgXgXgXgXgXgXgXgXgX@X2 @ % : s 1 7 d u d d 6 - = % O &XgXgXgXgXgXjXjXjXjXjXjXxXxXxXxXxXxXxXxXcXcXcXcXvX",
"[ L L L L L L L I I I I I I I I I I I I I I I L 8 O @ < % = - : 5 > - @ @ @ J I I I I I _ _ _ _ _ _ _ _ _ ` ` ` ` ` ` ` ` ` ` @X",
"_                                                 . + @ @ @ @ @ @ @ O O O .                                                   [ ",
"_                                                   . + + o O o o o O @ .                                                     [ ",
"_                                                       O o . . . . @ @                                                       [ ",
"_                                                                                                                             [ ",
"_                                                                                                                             [ ",
">X=X=X=X=X=X=X=X=X=X=X=X*X*X*X&X&X&X&X@X@X@X@X+X+X+XOXOXOXOXOXoXoXoXoXoXOXOXOXOXOXOXOXOXOXOXOXOXOXOXOXoXoXoXoXoXXXXXXX[ [ [ ] @X"
};
