/* XPM */
static char *result[] = {
/* columns rows colors chars-per-pixel */
"64 64 234 2 ",
"   c #5B4857",
".  c #47404E",
"X  c #7F584F",
"o  c #685358",
"O  c #7C5D54",
"+  c #725D57",
"@  c #744A56",
"#  c #7C6155",
"$  c #4B4865",
"%  c #524964",
"&  c #58597B",
"*  c #5A5368",
"=  c #7B5963",
"-  c #6E5062",
";  c #7E6668",
":  c #7D6677",
">  c #823E4E",
",  c #864C4D",
"<  c #9A4C53",
"1  c #875955",
"2  c #9A5355",
"3  c #9D555B",
"4  c #955858",
"5  c #9A474E",
"6  c #AB4E59",
"7  c #A54C58",
"8  c #A4545C",
"9  c #AB555D",
"0  c #A65A5D",
"q  c #AB5A5E",
"w  c #A45156",
"e  c #B3565F",
"r  c #B2585F",
"t  c #8B645B",
"y  c #856A5D",
"u  c #8B6C5D",
"i  c #836457",
"p  c #98675E",
"a  c #90725F",
"s  c #A9635E",
"d  c #9F5D68",
"f  c #805062",
"g  c #A55661",
"h  c #AB5661",
"j  c #A55B64",
"k  c #AC5C63",
"l  c #AC5D68",
"z  c #A55F6C",
"x  c #B45660",
"c  c #B35C64",
"v  c #BA5C64",
"b  c #B45D6A",
"n  c #BA5E69",
"m  c #B95762",
"M  c #8C6D63",
"N  c #886C67",
"B  c #9C6462",
"V  c #926D62",
"C  c #9E6A65",
"Z  c #9C6C6A",
"A  c #9B606D",
"S  c #8C7265",
"D  c #8E7468",
"F  c #937464",
"G  c #9A7565",
"H  c #9B7966",
"J  c #96756A",
"K  c #9D756A",
"L  c #957A6B",
"P  c #9D7A6A",
"I  c #927967",
"U  c #8A6B79",
"Y  c #966875",
"T  c #9C7776",
"R  c #83727B",
"E  c #A56465",
"W  c #AD6265",
"Q  c #A56B65",
"!  c #A4646B",
"~  c #AC646B",
"^  c #A56D6C",
"/  c #AA6C6C",
"(  c #A96B66",
")  c #B36266",
"_  c #BA6266",
"`  c #B46965",
"'  c #B4656B",
"]  c #BB656B",
"[  c #B56A6C",
"{  c #BB6B6D",
"}  c #BA6967",
"|  c #A5746B",
" . c #AB746D",
".. c #A27A6C",
"X. c #AA796F",
"o. c #B3716C",
"O. c #BC716D",
"+. c #AA6570",
"@. c #AE6B71",
"#. c #A66D73",
"$. c #B56C72",
"%. c #BC6D72",
"&. c #B96872",
"*. c #A47373",
"=. c #AA7472",
"-. c #A47B72",
";. c #AC7B73",
":. c #AC7B7A",
">. c #B47374",
",. c #BC7374",
"<. c #B27A73",
"1. c #BC7A76",
"2. c #B5747A",
"3. c #BC757A",
"4. c #B47B7A",
"5. c #BD7A7B",
"6. c #C15B66",
"7. c #C1656C",
"8. c #C26B6D",
"9. c #C86B6E",
"0. c #C26367",
"q. c #C3726E",
"w. c #C36D73",
"e. c #CA6D73",
"r. c #C76E78",
"t. c #C37374",
"y. c #CA7375",
"u. c #C37976",
"i. c #CA7A76",
"p. c #C4757A",
"a. c #CB757B",
"s. c #C47B7C",
"d. c #CB7B7C",
"f. c #D2767B",
"g. c #D27B7C",
"h. c #D47976",
"j. c #9D826B",
"k. c #A48373",
"l. c #AB8173",
"z. c #AB827C",
"x. c #A6867B",
"c. c #B5837B",
"v. c #BB8179",
"b. c #B38477",
"n. c #C3817D",
"m. c #CB827E",
"M. c #CD8376",
"N. c #D2827E",
"B. c #DD867F",
"V. c #5F5F82",
"C. c #766D8B",
"Z. c #7C7290",
"A. c #696A8D",
"S. c #877088",
"D. c #BB7C84",
"F. c #B97882",
"G. c #AB7E80",
"H. c #C47C82",
"J. c #CC7D83",
"K. c #C97985",
"L. c #D27D83",
"P. c #D27E89",
"I. c #D57A83",
"U. c #B48482",
"Y. c #B98887",
"T. c #BD908C",
"R. c #C58283",
"E. c #CC8384",
"W. c #CC8986",
"Q. c #C5848B",
"!. c #CC848A",
"~. c #CC898C",
"^. c #C7888A",
"/. c #D38384",
"(. c #DA8485",
"). c #D48A86",
"_. c #DC8B85",
"`. c #D3848B",
"'. c #DA858B",
"]. c #D48B8C",
"[. c #DB8B8C",
"{. c #C5948C",
"}. c #D4918E",
"|. c #DB928E",
" X c #CC8691",
".X c #CD8C93",
"XX c #C78894",
"oX c #D48691",
"OX c #D48B92",
"+X c #DB8D92",
"@X c #D58E9A",
"#X c #DA8F99",
"$X c #D88391",
"%X c #CE9293",
"&X c #D59295",
"*X c #DD9294",
"=X c #D4939C",
"-X c #DB949B",
";X c #DD999C",
":X c #D7989A",
">X c #E18D8D",
",X c #E08886",
"<X c #E4938D",
"1X c #E9958E",
"2X c #E18E93",
"3X c #E39394",
"4X c #E49995",
"5X c #EA9A93",
"6X c #E3959A",
"7X c #E9959A",
"8X c #E49A9C",
"9X c #EA9C9C",
"0X c #EA9594",
"qX c #F19A9F",
"wX c #EDA29E",
"eX c #E6A19E",
"rX c #F1A39C",
"tX c #D794A0",
"yX c #DC96A2",
"uX c #DD9AA2",
"iX c #DF9BA8",
"pX c #E39CA4",
"aX c #EA9CA2",
"sX c #E49DA9",
"dX c #E699A6",
"fX c #E4A1A5",
"gX c #EAA1A3",
"hX c #E6A1AA",
"jX c #EAA4AC",
"kX c #F3A7A7",
"lX c #EDA5B0",
"zX c #EFA8B0",
"xX c #F2AAB4",
"cX c #F3A7B4",
/* pixels */
"; K g ! ~ ) ] } 7.w.y.p.p.d.J.s.H.p.s.s.s.u.5.u.2.>.>.k w k o * T g q s s ` O.{ ,.,.s.J.u.H.E.E.J.m.E.E.[.`.+X|.).).,.,.w k # - ",
"Q.-.=.~ W [ %.c ] ] 7.t.p.s.J.p.H.I.a.p.p.a.p.u.3.[ ' W 0 k.c.F.T *.l l ) } { ` { ,.p.s.E.R.)./.E.R.).).).`.].3X(.E.t.] q l.Y.OX",
"iXtXY.G W $.{ ) _ e 8.7.w.s.d.r.a.r.r.w.,.t.s.u.p.{ _ ` P F.=XiXXXS  .k k c 8.{ { $.t.u.s.R.W.m.a.J./.)./.L.P.s.u.d.w.` :.Y.yXiX",
"hXhXsXT.G 5.[ { ] c O.} { d.E.i.r.e.e.e.8.O.a.%.$.W ) P 2..XjXjXpXtXD  .c ` t.{ ] _ { d.w.(.E.s.s.i.N.E.g.d./.d.i.d.i.X.F.@XpXiX",
"fXjXxXxXY...,.' %.n _ q.[ u.,.{ i.t.] 9._ 0.t.O.` W -.#.OXyXjXhXuXfX=XS  .&.t.] c _ { s.%.s.m.m.u.d.N.d.i.d.i.w.i.%.| F.#XpXsXjX",
"hXfXxXlXzXY...&.%.,._ 8.7.i.t.i.7.] } _ v r ) O.` K 4.!..X%XpXfXfX:X:XtXI ;.' [ c ' { p.{ u.m.s.u.w.7.t.d.(.t._ 8.K #.OX-XsXfXdX",
"fXhXjXpXhXhXc.F &.$.,.i.d.t.a.d.8.] { c r ] a.{ P ^ H.!.@X;XpXfXkXfX:XfXtX:.<.b ' ] ' t.{ d.d.} ] ] ] w.(.d.t.] G ^ `.OX6X8XpXpX",
"pXaXjX;XfXuXpXc.F &.u.d.N.8.t.] { { { ) ` { s...^ J.!.!.@X;X:XwXkX;X:XiXhXpXY.;.b { ` s.i.t.t.7.n _ } { d.{ t.G #.'. XOX-X8X-XpX",
";X6XpXyX8XpXdXdXU.P %.s.m.a.J.7.%.t.{ { { [ ;.<.K.H.s.R.OX8XeXrX;X:X}.:X&X{.;X{.*.' [ 3.E.m.u._ c c c ' ' [ -.@.P.`.!.oX*X8X6XdX",
"9X9X-X;X-X].&XyXdXc...3.u.s.p.{ &.,.,.$.) K  .&.,.5.R.5.].5XrX9X;X|.}.}.&X~.W.@Xc.K $.%.m.5.%.] c ) ) O.W ;.o.%.J.!.!.!.-X9X8XaX",
"8X3X*X*X*X|.!.OX#X+XD.c.,.E.p.&.&.W 5.$.-./ &.%.p.H.R.W.W.5X9X+X;X*X}.&X~..X~.Q.OX:.F 3.,.u.n.%.c ~ W '  .>.%.3.I.J.`.P.].4X9X9X",
"3X9X+X+X+X].!.!.`. XK.c.b.E.H.5.$.' F.l.( k ] a.d.E.).|.W.W.].].4X4X|.].OX].@X!.!.oX^ V [ >.m.1.` ~ j  .| W &.a.a.P.'.oX].<XkX2X",
"7X9X3X[.'.OXE.!.!.H.P.%.t c.2.!.>.+.:.( 9 ' ] r.K./.J.].|.E.).|.5X4X].E.`.OX~.W.Q.J.K.! S >.,.>.@.! ;.s 9 ' &.y.I.P.'.'.'.6X7X+X",
"2X0X3X[.[.].].!.R.s.H.3.' i c.[ +.K ^ k c n ] L.>X(./.[.'./.)._.4X|.E.E.R.[.!.W.!.F.3.K.B J 2.$.@.-.p 7 e n ] y.a.(.+X3X>X<X4X[.",
"0X>X2X`.).`.`.E.E.E.p.,.' w V Y -.Q h k c ) { H.|.(.h.(.[././.].+X|.n.W.R.E.R.s.H.s.>.>.b 4 P #.=.1 < x m ] ] r.f.P.`.0X2X(.'.4X",
"'.>X`.E.!.[.[.J.E.p.5.$.W 6 = A.S.j k 8 k { ` m._./.L.]._.,Xm./._.E.R.J.H.E.E.3.,.$.,.' ' 9 = Z.U 4 c h k c ) ' i.L.J.[.0X<X3X2X",
"'.'.P.J.E.[.[.J.t.,.$.O.[ 9 + $ R ! h k W ) { i.(.d.u.p._.5X].).].`.J.H.J.J.J.s.$.,.>.` W 0 o $ R j g q 0 q W ~ O.s.[.<X7X0X>X3X",
">XP.P.K.K.E.).u.w.8.' [ ) F -.F.-...j l l { { } N.t.i.d.<X5X'.]./.J.J.a.H.d.p.d.u.t.$.[ g C # @ T | j l c m { t.{ i.[._.2X0X0X<X",
"'.I.a.a.a.J.J.,.{ } [ ' P *.Q..XtXY.;.l W >._ ] q.i.i.i.<X<Xd.(.g.L.P.y.a.d.u.t.u.{ [ W p u D.yX@Xz.<.b h c ] ` [ d.i./.(.7X>X'.",
",XI.y.y.a.d.E.8.{ ) ] -.:.Q..X=XyXtXj.*.b ' [ p.s.8.h.(.<XN.f.f.y.y.y.t.y.L.i.[ >.[ { Q F 2.^.yXjXtXx.<.b c ' { } { 8./.(.>X(.'.",
"'.f.e.y.>X(.w.} { ) <.b.Q.XX.XuXyXfX=XN  .' [ p.u.w.g.[._.d.y.f.f.I.f.w.e.a.i.} ' )  ...D.XX=XhXsXuXuXD <.n %.' ` } _ 7.,X1Xh.e.",
"f.e._ 7.f.(.y.t.c | G H.Q..XtXyXuXuXpX=XM <.' ' r.w.g.(.h.h.e.9.e.I.f.9.y.f.i.q.c E -.5.!.&X=XuXjXuXhXsXD <.] ) O.O.} q.,X(.e.y.",
"f.9.7._ 8.g.u.' | F 3.~.Q.^.&X;XuX&X:XjXsXS ;.&.' c f.h.f.h.0.9.e.f.9.9.e.(.d.{ W P 5.!.Q.OX:XuXfXuXuXjXsXS o.b ` { { d.g.i.e.f.",
"f.e.9.y.d.t.{ ` P 2.K.!.Q.R.{.:XuXuX:XyXlXyXD >.&.{ t.t.N.h.7.y.e.f.7.f.,X,Xt.{ K $.`..X@X&X;XgXfX;XuXfXxXtXD ;.' [ ] f.N.h.7.f.",
"e.9._ 8.m.7.t.a ~ P.3.>.~.^.}.&X&X&X;X:X%XjXtXD >.r.3.s.(.g.g.f.y.i.7.y.>X(.p.G d P.oXOX#X-X4X8XgX:XpXeX=XyXdXI  .] [ q.M.d.7.i.",
"7.7.] %.%.,.H B a.H.m.1.!.[.).}.;XeX;X%X&X%X=X=XM ;.' p.d.L.a.t.e.g.a.w.(.i.G p a.P.P.+X*X6X;X3XgX8X6X8X@X XpXyXM ;.&.u.O.{ w.a.",
"' ,.s.u.&.;.^ r.a.s.s.E.~.~.|.}.].eX*X&X&XOX~.-X!.F <.3.`.P.w.%.p.N.d.[ /.b.W w.I.P.`.+X+X;X3X*X8XeX9X:X=X@XH..X XM =.%.[ t.t.s.",
"u.p.s.b  .o.] w.a.p.s.J.OX].}.).W.*X6XOXOX@X&X.XOXF.M v.H.H.' &.%.d.m.$.l.Q r.a.I.J.P.+X[.*X8X9X*X6X8X-X*X*X~.Q.!.F.y :.~ ,.p.s.",
"!.3.+.4.4 c %.,.p.J.p.E.`.`.+X].W.!.#X~.!.~.^.W.R.K.2.M 4.$.+.>.o.[ 4.P 4 _ { y.p.J.P.'.[.+X0X8X|.3XkX*X&X+X].~.!.oXK.# :.! @.R.",
">.! -.X 6 %.,.,.1.p.p.H.H.E.).E.n.E.].!.R.D.4.R.Q.H.H.&.i :.! #./ 4.X.< r _ ' %.t.J.'.[.[.3X3X3X|.|.9X+X[.#XOX*X`.`. X&.O *.+.3.",
"d -.O 7 e c p.3.,.3.p.H.J.W.E.J.R.!.`.`.E.R.E.H.5.s.3.3.~ # *.d Z G ) q c x ] ' t.p.d.R.H.~.3X0X<X[.4X+X].+X[.*XOXP.K.p.l O ;.A ",
"Y # w c e _ %.s.p.p.E.J.H.W.].E.E.}.`./.`./._.W.5.R.d.[ _ 5   S.N 2 q k h 9 ) [ [ o.o. .5.5.R.`.!.(.E.m.n.5.W.|.`.H.a.3.{ w X U ",
"Z.A k 8 h _ %.p.s.s.d.d.).|.(.(._.|.E.J.J.[.[.E.E.).i.' 9 q   V.U l j 0 j 9 k ' ` o.n.=.>.5.5.n.m.).n.1.1.m.W.s.E.s.u.%.l c > & ",
"* =.l h l ] 7.t.r.t.a.d.<X<X_.[.+X[.].J.p.'.(./.).N.t._ _ S -.D.U.*.W g x x ) ~ t.O.u.,.,.R.R.].W.W.i.m.,.m.E.).].u.u.&.c 6 B . ",
"D.D  .b 0 ' w.8._ 7.i.d.<X(._.I.[.*X[.d.s.,.L.g.i.B.{ ' H -.yXyXiXU.S ' h c 8.` ) { { t.n.m.s.J.(.J.s.s.u.s.m.u.u.u.u.' 6 Q J 2.",
"sX=XL  .c ' &.u.7.m e.N./.d.d.(.P.[./.t.%.{ O.,.u.O.W u #.pXuXyXjXjXG.k.&.k [ O.) ) { { g.s.u.s.a.a.s.a.1.s.m.1.[ u.' 0 Q :.Q.yX",
"yXsXiXx. .' ' %.t.c 7.y.q.q.d.w.f._.J.8.) W ) } ` ` G Z  X@XiXpXhXhXlXuX{.) &.j ` k c } { ,.%.{ %.} 8.,.{ ,.1.{ >.} ) F z.XX=X;X",
"sXyXhXiXk. .b ' ' _ } 8.} q.8.t.y.i.{ { ` ` c [ { H *.!.OX.X;XuXuXzXjXjXxXk./ n l b [ w.{ { ' ] %.7.q.{ ` i.{ ` [ [ u *..X&X;XuX",
"jXiXfXfXiXk.^ ) ) ' O.] t.8.y.i.9.{ _ _ } W ` ` G #.P.OX6X8XpXsXfXhXxXjXjX=Xy  .n ) ' { O._ _ ) n ] { O.` { u.{ W ..#.!.OX:X:XjX",
"fXfXuXuXxXsXJ  .b { q.{ t.(.N.q.} ` ` ) ` l l | C K.H.`.-X6X8XpX:XdXhXsXdXuX@XN 4.' ' t.{ _ t.%._ { 8.[ ,.[ { | F H.`.!.&X8XeXjX",
"fXfXpX;XyXsXyXJ ;.b t.o._.).m.q.` c ' W ~ l | t ' H.H.`.oX+XaX6X-X6XdX8X;X;XyXoXJ >.' $.>.O.m.' ,._ { [ $.{ / V 3.`.`.M.-XgXkXgX",
"6XpX6XdX.X.XsX@X-.;.>.t.W.N.d.u.' %.,.W l | t l %.3.J.OX-X3X6X#X*X-X-X6X*XOXOXdX@XM :.$.>.p.p.) { ,.,.&.>.X.<.3.K.P./.].6XwXkXgX",
"6X9X6X6X#X XOX#XOX4...>.u.m.).u.' ,.s.z | O h w.p.H.J.2X7X7X6X+X+XOX3X-XOX*XOXOX@XP.# *.$.R.2.%.' >.,.@...E ' %.p.K.`.oX[.9XeX9X",
"4X7XaX#X6XOX!.~.~.`.C L 4./.>.,.+.3.H.-.1 9 ] w.p.J.P.3X|.4X'.`.+X+X3X2X3X*X@X!.!.$XH.# =.H.2.,.$.~ >.S 4 c &.a.p.J.).6X}.6X4X|.",
"qXaX7X+X*XOXOX`.~.H.K.! k.4.3.=.3.5.k.4 6 6.7.e.r.J.`.2X<X*X/.3X+X2X7X8XwX+X+X[.!.H.P.%.V =.@.>.@.$.P , v n %.a.a.P.'.3X8X[.+X[.",
"2X7X6X+X6XOX~.`.J.K.H.p.~ p :.z =.l.^ 6 m 6.n e.r.K.+X].].+XE.[.`.+X9X+X5X[.+X#XJ.5.3.p.~ -.#.! >.k.2 9 n 6.7.a.J.d.J.[.[.].[.[.",
"7X2X$X[.+X`.`.J.K.H.,.%.' < O S.T B g x x m n 7.e.r.'.E.s.!.W.[.'.2X0X).*X+X+X).E.5.$.[ ] < ; Y -.3 h e m 0.7.a.L.L.$X`.]._.5X>X",
"0X2X'.).`.`.[.`.H.5.,.` q r @ & C.A k k h x n 7.e.9.y./.d.'./.(.`.,X3X/._.[.E.d.p.s.[ W h < $ A.Y 8 g 9 9 c { u.f.J.).`.'.[.4X<X",
"2X>XP.P.].[.+X/.N.,.%.` 0 q y o : J j d w 0 W _ %.] O.d./.'.(.(.[.'.'./.).].'.H.t.i.>.W w C + % N j l 8 8 0 O.O.u.p.J.a.[.9X5X[.",
"P.P.[.I._.>X'.a.g.s.[ ) j u Z !.^.U.P E j c W { { i.{ u.(./.m.N.'.(.g.d.s./.[./.a.} [ ` B L D.F.U.-.b j h ) O.E.i.t.t.a.J.,X1X_.",
"y.L.P.d.d.)./.d.u.t.{ [ S Z XX.XtXiXT.I ~ l k { ] 7.{ u.u.d.d.g.(.(.g.a.d./._.).t.{ O.| P 4.T.=XtXx.<.b j c O.u.u.{ ] t.t.d.<X<X",
"r.e.u.d.d.i.J.i.t.{ %.H *.!.XX=XyXuXlXT.J ) l { _ w.] { { d.u.d.L.(.(.y.d.).m./.,.) o.P 2.Q.=XtXuXyXT  .l c O.u.u.u.t.] t.m.m.(.",
"w.7.} d.d.E.i.] ] u.G *. X.X=XyXjXlXjXlXY.I $.~ ' ] c ] ] R.m.,.a.y.r.a.y.(.N.t.) Q P s.^.Q.tXuXjXhXyXL ;.b $.,.,.t.{ ] u._.s.y.",
"9.] n r.y.u.w._ ] K =.oX-X.X@X%XuXjXhXzXxXU.F &.' c c ] 7.d.8.q.g.9.y.g.B.h.t.8.( F 5.Q..XOX&XfXhXhXfXiXD  .' ,.{ { %._ 9.(.N.y.",
"7.v ] t.] i._ { G Z P.OX@X^..XXX.XuXtXjXxXxX:.F $.l { b { 8.} 8.y.(.y.y.f.t.7.4.P 3.!.~.OX&X;XpXuXjXuXfXyXI ;.&.,.w.{ } d.d._.9.",
"{ { _ [ t.d.t.G Q P.!.Q.Q.^.^.XX.X~.=XyXjXcXsX:.F %.%.' ] t.w.d.e._.g.m.u.d.v.J 3.P.!.#X-X*XpX;XuXfXpXuXsXyX-.;.&.,.%.{ (.(.i.t.",
"t.] ] t.J.p.G ~ K.P.K.~.@X~.~.!.~.W.{.%X=X;XyXtXT P $.[ ' u.t.u.a.u.d.m.g.v.j.%.P.`.oXOX@X4XgXuX;X:X:X:X=XyX-Xz.-.&.' 5./.).u.{ ",
") c %.3.,.G p &.f.P.J.H.!.!.R.Q.~.~.~.!.Q.!.OXXXdX*.I $.' [ { $.d./.o.{ 5.X.%.a.P.'.oX].OX-X8X6X;X;X8X4X-X.X;X-Xz...' [ o.1.1.' ",
"$.$.$.s.-.p 9.3.a.I.H.H.J.~.~.R.~.].|.~..X~.~.-X XoX:.P @.>.>.u.s.s.[ 1.l.&.&.K.P.$X`.~.[.*X-X*X3X8XgX;X&X].Q.XXoX:.k.$.[ O.u.$.",
"u.2.$.P 2 n %.p.2.3.H.J.J.E.W.R.}.[.!.OXOXR.Q.~.!.`.$X=.;.$.3.W.W.1.4.| W ] %.r.J.J.`.`.OX*X*X*XwXkXwX*X*X@X~.!.!.!.=.j.2.$.u.>.",
">.=.J 4 e _ w.%.u.p.J.E.E.E.!.R.E.!.!.`.OX).~.!.H.K.H.$.t  .$.R.s.:.l.8 n ] w.%.p.3.H.`.`.3X*X5XrX8X6X3X6X*XOXOX!.Q.K.B D >.@.2.",
"/ M , 9 e v ] w.s.d.d.s.H.J.E.~.W.R.].!.!.!.^.!.H.2.$.$.j u =./ ;.P w c 6.] %.>.3.3.s.`.].OX_.4X3X3X*X+X*X*XOX].P.H.,.3.1 F #.! ",
"T , 8 9 r r c ] u.a.a.p.5.u./.E.R.R.s.R.3.H.H.n.5.5.>.' c 2 = T ..l 9 9 e ] ' ,.>.,.s.s.E.`.).3X|.*X'.).*X*X].].!.R.3.%.b < N U ",
"C.z g j q k c [ ] t.%.p.H.p.s.H.H.s.u.s.3.5.5.4.3.,.3.~ k 5 % C.Y 0 8 8 q ) ] [ p.3.s.H.H.W./.]./.E.E.].3X`.`._.`.E.,.&.W 7   V."
};
