/* XPM */
static char *result[] = {
/* columns rows colors chars-per-pixel */
"64 64 233 2 ",
"   c #4F320E",
".  c #5B3406",
"X  c #54330B",
"o  c #5A360C",
"O  c #5D390D",
"+  c #563107",
"@  c #5D3D14",
"#  c #583913",
"$  c #532F04",
"%  c #633C0B",
"&  c #6A3F0C",
"*  c #623A07",
"=  c #623E11",
"-  c #5E421A",
";  c #5F4015",
":  c #6D430C",
">  c #69420E",
",  c #72460C",
"<  c #754B0D",
"1  c #7A4D0E",
"2  c #7C510E",
"3  c #644214",
"4  c #6B4513",
"5  c #6D4915",
"6  c #64441A",
"7  c #6C4B1C",
"8  c #68471B",
"9  c #734B14",
"0  c #7A4E12",
"q  c #734E1B",
"w  c #744A16",
"e  c #6E521D",
"r  c #765015",
"t  c #7C5213",
"y  c #74521D",
"u  c #7B551B",
"i  c #7E5A1C",
"p  c #7B591B",
"a  c #694E22",
"s  c #6D5223",
"d  c #6F5628",
"f  c #725323",
"g  c #765925",
"h  c #7C5B24",
"j  c #745B2A",
"k  c #7A5D2A",
"l  c #7B5621",
"z  c #704D21",
"x  c #7E6125",
"c  c #7D622C",
"v  c #7F692F",
"b  c #7B6630",
"n  c #7F6A32",
"m  c #82530E",
"M  c #825513",
"N  c #845A14",
"B  c #8A5D14",
"V  c #825619",
"C  c #835C1C",
"Z  c #885E1A",
"A  c #895611",
"S  c #925F16",
"D  c #8D6215",
"F  c #85631D",
"G  c #8C631B",
"H  c #8C661B",
"J  c #946516",
"K  c #92661B",
"L  c #946A1B",
"P  c #9B6D1B",
"I  c #996B16",
"U  c #9C731B",
"Y  c #9D761C",
"T  c #A3751D",
"R  c #A47A1C",
"E  c #AA7C1C",
"W  c #A8751D",
"Q  c #A06F17",
"!  c #825C22",
"~  c #8A5F22",
"^  c #836324",
"/  c #8A6522",
"(  c #8D6B25",
")  c #83642B",
"_  c #8B6629",
"`  c #856B2D",
"'  c #8B6C2C",
"]  c #876826",
"[  c #946C23",
"{  c #926E2B",
"}  c #976C23",
"|  c #8E722D",
" . c #957223",
".. c #9B7423",
"X. c #9F7A25",
"o. c #93732C",
"O. c #9B742B",
"+. c #9B7A2C",
"@. c #977A2B",
"#. c #826632",
"$. c #846B32",
"%. c #8A6E32",
"&. c #857136",
"*. c #8C7334",
"=. c #8C7539",
"-. c #8E7A3B",
";. c #8B7737",
":. c #927433",
">. c #947B35",
",. c #9A7C33",
"<. c #93763A",
"1. c #937C3B",
"2. c #987E3B",
"3. c #997532",
"4. c #946F32",
"5. c #A27623",
"6. c #A47C22",
"7. c #AB7D22",
"8. c #A37D2A",
"9. c #AA7F29",
"0. c #B07E21",
"q. c #A17D31",
"w. c #AF821E",
"e. c #B2821E",
"r. c #9C8336",
"t. c #95823D",
"y. c #9B843C",
"u. c #9D893D",
"i. c #A68125",
"p. c #AC8324",
"a. c #A6832D",
"s. c #AA842A",
"d. c #AD892C",
"f. c #AF8826",
"g. c #B38523",
"h. c #B98622",
"j. c #B48925",
"k. c #BB8C24",
"l. c #B2842A",
"z. c #B58C2B",
"x. c #BA8D29",
"c. c #BD922D",
"v. c #BC912A",
"b. c #A38434",
"n. c #AA8533",
"m. c #AC8B33",
"M. c #A4863B",
"N. c #A38B3C",
"B. c #AB8C3C",
"V. c #A68B36",
"C. c #B08D33",
"Z. c #B38E39",
"A. c #A7913D",
"S. c #AC933C",
"D. c #AF9136",
"F. c #B39234",
"G. c #BC9533",
"H. c #B3943B",
"J. c #B7993C",
"K. c #BA9A3B",
"L. c #BA9739",
"P. c #C28F26",
"I. c #C39225",
"U. c #C2942B",
"Y. c #CA9629",
"T. c #C6992D",
"R. c #CB9A2B",
"E. c #CA9726",
"W. c #D39D2A",
"Q. c #C39C35",
"!. c #CB9E32",
"~. c #C29C37",
"^. c #CBA439",
"/. c #CCA337",
"(. c #D7A836",
"). c #D6A22D",
"_. c #968441",
"`. c #9B8542",
"'. c #9C8B44",
"]. c #968942",
"[. c #9E9146",
"{. c #A38C43",
"}. c #A18F48",
"|. c #A48942",
" X c #A49245",
".X c #AB9344",
"XX c #AE9946",
"oX c #A49449",
"OX c #AA964A",
"+X c #A6994B",
"@X c #AB9C4D",
"#X c #B19644",
"$X c #B39C44",
"%X c #BD9E42",
"&X c #B29D4B",
"*X c #B4994B",
"=X c #AE9E50",
"-X c #B19D51",
";X c #AEA04F",
":X c #BCA346",
">X c #B3A14E",
",X c #BBA54D",
"<X c #BEA94F",
"1X c #B7A047",
"2X c #AFA150",
"3X c #B3A452",
"4X c #B9A653",
"5X c #B7A854",
"6X c #BBAB55",
"7X c #BDAE58",
"8X c #BFB059",
"9X c #C39F46",
"0X c #C3A543",
"qX c #C3AB4D",
"wX c #C9A846",
"eX c #C1AD55",
"rX c #C1AE59",
"tX c #C3B156",
"yX c #C3B45B",
"uX c #CAB65B",
"iX c #C7B85E",
"pX c #CABA5E",
"aX c #C9B255",
"sX c #D2BE5E",
"dX c #CEB04B",
"fX c #CDBD61",
"gX c #D1BE62",
"hX c #D8C25F",
"jX c #D3C364",
"kX c #DCCC69",
"lX c #DAC261",
"zX c #CFC062",
"xX c #E6D56F",
/* pixels */
"{ ~ V K 7.p.e.E j.P w - #.5XfX6X3X{.) z ~ / q z #.rXrX4XpXaXoXOX{.yXiX8X5X#.6 r X.p.w.E R Y f.a.| v 8XiXiXzXzXpX5XoX7XrXyXyX7X#X",
"#.f u D J R W e.Y < @ s [.6X5X6X4XoX2.1.:.' #.#.-XgX4XuXjX6X5X;X6XyX@X2X+X&.f r N i.g.Y Y Y X.X.| XXyXyXiX>X8X@X1.#.}.XX-XfXrX|.",
"<.k :./ F P T I , & a -.oX=XyX6X=X+X3X@XOX*X}.3XfX3XfXfX7XtX6X@X@X;X@X2X+X_.] 7 r 6.X.L M t H r.1X3X3X>X+XtXXXc a f f ,.*XuX-X}.",
"OX@X{.b.] Z G 9 r j -.'.[.7XOX_.-.4X4X6XtX6XfXfX=X2XfXyX7X<XqXS.>.A.>X,X3X}.%.f p  ./ 0 O . i XX+X+X[.[.OX.X| 5 4 = ~ :.=.OXrX-X",
"yX5XeXXX2.*.c ' =._.+XOX5X>.- - =.2.-.5X6XyX8X=X7XyX,XN.S.:X%Xa.K.H.S.|.@XoX`.#.%.' h 3 X e y. X+X+X+X-.x x H L D H a.+.>.,XyX7X",
"pX8XrX@X-XoX X@X+X{.&.r.' 5 @ # 8 6 $.+X7X7X3XiXyXOXr.V.L.^.G./.Q.8.i ' #X3XOX}.*XoXn $.1.+X+X3X;X5X+Xg 4 D i.i.i.i.G.F.<X6X6XiX",
"5X$.-.4X.X&XeXtX3X%.r t M t , O o p 1.2X5X2XfXfX{.| +.F././.(.T.j.K t { .X@X2X8X3X[.+X5X2X2X2X[.+X;Xu.| r L Y f.p.j.c.a.0X>X6X5X",
"d - *.+.V.0XqX,X X) t m U U D < 9 h u.2X+XfXfX-Xy.M.V.z.x.T.T.k.E J D { ;.@XyX7XoX'.eX5X[.2X7X[.[.+Xu.x < t i.R k.Y.d.d.S.&X3XoX",
"d 4 9 6./.wXF..X X:.K P 0.j.6.m @ k OX4XfXfX6X[.;XA.+.} p.w.e.I.g.P V 5 %.rX3X5X{..X#Xy.4XeXXXoX;X;X;.; $ 2 Y w.e.E w.a.r.;X;Xt.",
"z % B U.T.U.s.b.&XN.K 0.Q g.J & = j -XfX7XfX=X5X>X.XC 0 I E k.E.k.P 0 u OX-X5X4XM.B.q.B..X,.r.&X;X[.&.- O p w.w.I R i. .] '.[.1.",
"z 0 T g.k.E.9.:.|.N.8.J I K M * = <.7X5XfX4X8XfXuXXX] C P x.v.p.6.[ ! 3.'.[.rX2.n.s.G.l.} C M.4X+X].t.e < H Y L U w.i.i.o.'.@X1.",
"l V t J h.h.m _ `..X5.M , V 0 q #.rX7XkX4XoX=X7XrXXXb.+.a.Q.f.X.9.O._ 1._.OX%.5.U./.P.5.S F H.OXt.;Xu.| e r < < < H  .] t.+X2X'.",
"' / V A T A 9 ] 3X*X{ ! w q ! $.-X6XyX*X:.*..X6XpX@X@X1XS.m... . ._ $.+X7X1.) 7.U.!.h.0.T s.Z.! -.oX+X=.8 X . * O > 3 8 A.2X2X'.",
"$XO.C C B > 3 2.uX@XOX<.! %._.3X7X_.%.y w _ h 2.`.@X>X>X$Xb.^ F r e _.8X=X$.Z 7.R.h.k.k.g.5./ ) %.'.+X2.k - 3 5 5 ; 6 -.+X;X@X3X",
"6XN.b.+.] p k OX3X3X3X@X'.OX6X=Xb 7 % < 1 , O 3 :.tX;X6X6X>.g c d ;.yXfXoX_ V T h.k.Y.R.P.z.O.3.1.+X3XoX&.a g | ;.;.t.oX5X>X5XiX",
"6X5X5XOX.Xt.OX2X2X2X+X+X7X5X+X&.3 % , B B 1 1  .:X<XyXpX2Xt.'.].].8XiX5X@X' C Z P Y.Y.R.U.n.n.N. X7XyXOXt.t.[.[.;X6X;X5X5X5X8X7X",
"@X5X6X5X3X3X;X5X+X[.3X5X@X+Xt.y + > D i.Y Y U f.K.>X6X5X[.;X6X+X;XtX;X;X5Xt.| +.Z.!.!.z.5.a.H.XX&XtX5X@X2XyXoX2XyX5X7X;XXXOX>X;X",
"@XoX5X8X8X2X;X+X+X2X5X;X@X@Xt.5 . 2 I w.w.w.j.G.D.1X5X>X3X5XoX'.+X+X+X7X>Xt. X%X9X~.H.q.] M.1X4X;X7X3X7XiX6X8XyX7XyX&Xy.' | N.>X",
"`.@XyX7X5X'.n -.+X-X@X3X@X X] 9 2 H R w.w.w.T.Q.D.XXyXuX5X_.c v ;.*.OX3X[.+X6X6XqXaX%X1.y.4XfXpX+X5XyXyXyX8XfX7X5XXX:.w o u b.M.",
"1.@X3X_.#.f a b =. X3X3XoX=.7 4 < F D Y w.i.d.i.u.&XgX3X'.a @ 6 x >.OX@X5X+XoX@X3XeX-XOXyXfXyXuX2X8XfXkXfX7X7XuX1.^ C 4 . 5 ( ] ",
"<.=X{.k 8 = z ! ) t.oX+X@Xv 8 8 r 5 * M F Y p p 1.pXyX=Xj @ X u @.M.$X3XyXoX'.y.2._.3X&X3X6XrX7XzX5XzXkX5X+XyX+X%.' / r 1 1 A u ",
"*.oX:.V V C ! ~ ^ <._.3X@Xn c h r = 3 > i F 3 e '.7XiX'.f = * P F.^.S.5X4X'.j f u _ :.y.OX6X3X5X2X5X8X5X[.5XiXoX|.N./ B D I J r ",
"1.=.} K 5.O.m.q.{ k =. X[.'.t.;.v k 6 s ,.&.x b 5X3X4X3.q , K z.G.^.D.tXyX_.7 0 H 9./ ^ <.%.1.oX5X3X+X[.5XfX8XyX>Xb.( ^ J W B Z ",
"-.>.P T h.~.~.m.^ h $.].3XoX[.;XOX_.&.{.&X+X-.+X6X=X4X3.q N j.j.v.G.K.hXiX:.V P z.j.H r ! #.-.oX2X+X+X6X8X8XiXzX+X{.y.| 6.L , h ",
"'.b.P W v./.^.d.( h $.OX+X3X;X3X5X'.3X7X3XoXoX@X'.yX*X' u 6.g.x.v.k.0XhX5XO.K g.h.0.m 4 8 g &.oX3X3X2X7XyXfXiX6X5XiX4X$XXX' y =.",
"=XN.L I l.^.wXm._ h #.1.8X5X;X5X@X3XoXOX{.2.2.$.1.fX-X1.} D P I.E.v.0XtX X/ L h.P.S & 4 g 1.5XfX8X3X7X7X8X6X=X4XfXjXtX>X{.y.y.[.",
"+X<./ H l.~.m.n._ k d oXiXiX5X5X4X#.#.%.^ +.~ 4 2.-X&X1.) V g.T f.G.J.yXM.' Y R.l.V 7 <.-X7XyXrX+X+X7X7XyX=XoX4XaXqXV.F.J.J.{. X",
"u. X>.,...{ #X$X1.$.}.yXiX7X3X6XN.z l = / a.G 4 h *X-X.X:.[ 5...i.V.tX5X'.r.F.K.n.4.|.4XrXyX7X+X+X5X7X8X3X-.<.M.b.} x.Q.G.X.( u.",
"'.3X.XN.=.N.gX-XOX3XyX8X5X2XtX1XB.' C Z p.z.J 4 l *X6X+X|.B.Z.O.+.qX6X[.3X XqX<X-XOX-XOXuXkX6X3X7XyX8X@X'.$._ ! w L E g.e.T p ] ",
"3X2XoX;X+X+X3X6X5X7XyX3X@X7X X1X#X+.+.d.x.p.I V 4.4XiX4XeXuXXX{.{.6XiXiX7X;X5X3X'.2.<.OXlX>X7X@X5X2X3X3X.X*.) 8 % M m J j.i. .A.",
"5X>X5X X{.oX3XfXyXfX3X@X8X5X+XqX:XK.F.d.j.g.W } }.7X7X7XpXtXrX3X7XpXjXyX3X=XoXv 8 ! q.B.' ,.u.{.>XpXfX3X@X X>.^ & * > 6.G.+.1X5X",
"6X6X>.s s -.5X3XyX5X2X3X5X[.,X<XqX0XH.[ P 7...XX5X6X{.&X1X3X4X4X7XuX5X=XoX=.a X & P 9.P u / ) >.uXiX+X8XyX4XXX>.6 w ..L.A.5XfX3X",
"H.r.5 O o ) 6X6X+X8X;X+X+X@X3X5X,XA.x h / ' ].6X$XS.8.b.o.<.=.OX5X7X3X+X].a   % J P.0.W M , { |.sX3X3XuXiX5X@Xu.' ,..X6X>XzX8X,X",
"H Y P 0 r *.OX2X7X5X+X+X3X3X@X2X3X X&.1.1.'.=XN.z.k.6.G 4 8 j _.eXyX3X@X-.y > t E e.e.0.L } 9XeX4XfXfXyX5X+X@X'.OX5XyX5X5XjX>X+.",
"Y e.p.L +.[.3X5X5X3X@X3X5X;XoX=X;X+X2X[. X2X;.X.6.E U V % # g *X7X@X3XOXu.] F ..6.v.x...z.9XaXgXfXjX5X'.t. X+X5XyX7X6X5XgX#X .P ",
"e.e.R a.A.3X7X8X5X2XyX6X5X2X3X8X;X;X2X[.@X2.6 : N 7.6.N , = :.:. X+X+X+X Xu.V.@.a.z.Y P Z.qXgXjXfX}.j a $.`.eXpX;X5X;XpXy.i K U ",
"e.U i.D.5X8X;X7X7XyX>X'.oX3X8X7X;X+X;X5X2X#.# % 2 K J , & q ! %.[.;X;X;X X+X$Xu.r.^ 5 ! |.fXjXrX'.k = 8 8 :.,XXX3X+XyX&X] q D T ",
"N L V.<X2X'.[.;XtXeX-.j b '.5X+X+X3X5X5X=Xb 7 3 + % & 4 % = f `.6X3X+X;X6X;XXXOXOX=.%.`.gXjXfXOX:.z w 4 9 C { .X>X=X5X{.' u C K ",
"y b.tX5X X>.] r.:XN.e 6 a #.oX7X2X8X5X+X+X#.d   o o O X X 6 )  X7X+X;X5X6X7X7X;X+XoX-XyXgXfX-Xq.V V B D 1 m C >.{.5X@XOX:.l V q ",
" XyXiX6X&X@.L G.L.C.y 6 6 <.7X6X5XiX5X5X_.j - = = = O X @ h :.;X3X5XiX3X6XyX5X5XOX{.4XrX4XOXq.! M B 0.7.P J F n.1X@X+XOX*.k g #.",
"yXiX@XM.C.6.j.c.~.a.V = ! OXfX2XjX5XiXyX[.b d f 7 3 8 e s k OXyX;X7X+X6X6X&X XM.c ' :.XX4XOX:.t K I.T.k.P.g.6.m.N. X+X@X+X_.`.OX",
"yX5X%.n.i.k.k.U.!.8.w 8 4.rX6XyXpXiX5X+X2X'.*.1.t.t.y.` k _.5X5XiX5XXXt.|.>.:.V & C X.0X#XOXB.m.x.R.).W.R.x.p.a.r.u.+XiXyX5X6XiX",
"pX_.f [ J v.E.(.U.S & 8 {.gXgXfXjXjX5X2XiXyX3X'.;XyX+Xt.OXyXiXfXfX6X2.) { C r < M T ~.K..XaXdXdXQ.T.R.E.T.7.P } @.t.6XjXpXyXyXyX",
"@X%.u w 7.Y.).R.P 4 = k gXxXfXgXpX5XyXyXfXjX3X7XjX5X[.tXjXjXjXjX8XXX2.o.C 0 t J U T.v.C.dXsXqX$X~.c.6.j.T M t 5 ^ A.uXtXiXyX8X7X",
"`.#.i } c./.!.7., = f oXkXfXiXfXfXfXfXfXgXpXyXjXpX5XpXpXfXfXjXfX=X@Xb.l 4 , U w.k.I.T.G.B.M.oX.Xb.u F N : > % o f {.8X2X7XyXyX7X",
"2.#.n.L./.Q.m.H f k }.rX=X+X5XtXiX5XyXjXyX3X3X.Xu.6XuXuXiXyXfX=X3X6X*.3 % t J Y I.k.p.} q d 1. X) 3 9 w u 5 8 s j oX@X2XyX5XyX=X",
"-.1.$X^.dX0XN.<.=.[.3X+X1.b #.|.{.6XfXyX3X=X%.@ g B.:XS.{.uX-XoX6XoX2.y = , , L R R L p q 2.*X'.=._ ' ,.*.t.`.'._.[.3X7X8X2X7XoX",
"'.B.H.0X1X<XOX+X=X3X].' 6 X 4 4 M.3X=XyXoXc @ # 5 [ O.^ %.=.-.-X6X6X{.*.y 5 r < < N D ( |.OX3X=X-X3X3X@X=XfXyX6X@X=X2X7X5X7X6X[.",
"OX.XqX4X2XiX;X2XoXn e > * < > > p =.oX X-.d = % , , , y 8 a '.5X2XoX@XoXu.| i 9 * % Z ( 2.&X6XfXfX6X2X3XpXkXjXOX'.[.+X5X+X+X@X+X",
"3X3X6XyX6X5X@X_.d X . 2 D t 1 . X s -.'.-.e 9 t : 1 t r 7 b OX=X[.2X2X2X>X{.| 8 o > 7 h t.=X6X7XiX6X@X3XyXsXN.1.$.v `.u.t.'.5X3X",
"=X5X6X3X2X2X>X;.; . : N I Y U : X y ;.2X X .G t H T H N { '.[.@X2XiX5X2X+XoX X$.q 3 7 k 1.5X5X3X6X{.2.u.<XM.r 8 6 f g s s -.3X[.",
"oX=X3X5X8XyXXX` # + N U w.w.Q 2 : e +X2X.XV. .Y U e.T r y -.3X5X7X+Xt._.[.@XoX-.$.$.c &.@X5X2X=X2.y y m.O.0 & O 5 4 3 6 - j ].[.",
"=X=X;X@X2X;X[.] i L Y i.w.Y Y I 9 x '.]. XA.+.L I E M % g oX3X@X&.j j s &.+XoXoX+X'._.2X=X+X7X#.7 5 s.c...J m B L r ; O X - t.[.",
"+X2X;X@X;X5X$XD.D.D.d.f.w.i.J D C r.u.[.;X{.O.w m A N l <.3X+X=.e f 8 6 v _.[.3X6X[.+X=XOXgX=Xg 8 Z l.l.P.g.R j.p.Y t O # y u.[.",
"2X+X+XyXfX6X&XXXS.J.d.v.L 2 2 2 ] '.2X3X+X'.1.y N } q.{.-XrX{.O./ F 5 3 ; c oX5X+X+X2X+XfXuX`.3.C } 7.R.R.E.k.j.f.f.G + # x u.;X",
"2X+X5XiX5X5XyXpX>XV.m.Y 2 < : 2 u.8X;X&.b t.2.>.B.{. X6X5X&XG.G.f...V %   ) +X3X[.5X2X5XkX4X-X|._ S 7.P.W.E.h.k.z.z.1 . O ` [.5X",
"=X5X=X4X6XuXjX4X+XJ.{ p p F ! 1.=X=X&.@ - c ,.$X,.u.rXuXqXL.!.v.z.j.N * O s @XyX6X5X>XpXiXgXyX*X3.~ 7.W.E.P.R.g.f.L 1 5 i t.;X5X",
"[.3X=XOXoX3X5X5X7X X;.t.r.r. X8XfX}.a # % F C.9.i |.rXuX%Xz.P.h.T.k.M > 4 *.yXyX7X5X.X X{.pXfXqXq.! P W.h.(.k.7.R D G [ r.@X5X;X",
"5X+X&.j =.=.&XjX;X[.;X>X+X@X;X3XfX-.= + < k.g.I / ,.gXuXm.7.g.e.I.g.H 0 7 t.tXyXzXXXx g 2.,XuX-X|._ } 0.x.P B P B L X.S.;X5X;X;X",
"oXk = a ! %..XA..X;X6X3X@X3X3X7X5X#.@ . T v.k.W Z M.4XOX3.G I h.7.D m 9 g oX3X5XtXr.O 5 ' N.qX-X*X|.q.9.K w 0 0 r ( r.<XtX5X2X5X",
"=.z = = q 8.O.b.S.A.,X@X3X>X5XyX}.k # M z.z.x.g.} :.|.}.' 4 t 2 1 , & 3 1.=XoX7X1XF < < N b.#X5X*X}..Xq._ q u [ o.N.$X>X>X5X5X@X",
"g 8 & 0 Z s.X.d.d.:XXX{.t.5X7X8X|.g = } s.l.T.l.~ ! |.-X-.k @ > & % w *.uX=XOXeXm. .i.U T Y H.S.*X6X-X{.r.' b.$X,X<XeX8X7XiXyX[.",
"_ V V } l.l.j.p.^.J.n.) $.-XyX8X'.f C K 7.l.G.} h #.-X-X@X1.h q % 8 | 4XyX3XOXr.i.i.w.e.p.p.d.S.qXyX4X4X>X.XtXuXeX6X7X8XzX7X5Xy.",
"_ } / 5.7.U.k.U.f.X.Z 6 #.OX7XyXOX<.l V u O.} q z |.rX7X@X.X|.) k ' 5XjX7X'.x p  .j.e.w.E p.i.L.$X|.4XgX>XtXjXjXuXyX7XfXzX8X>X.X"
};
