/* XPM */
static char *_ea38eccc2fd48e9e2ec02c0ea4fa249q3tLZSyvqqIitCrl[] = {
/* columns rows colors chars-per-pixel */
"64 64 244 2 ",
"   c #16110F",
".  c #1A130E",
"X  c #1C1511",
"o  c #1F1912",
"O  c #23170F",
"+  c #211713",
"@  c #241A13",
"#  c #2B1C14",
"$  c #261D19",
"%  c #291E1A",
"&  c #341D15",
"*  c #2C2016",
"=  c #2D221B",
"-  c #322216",
";  c #33241B",
":  c #3B241A",
">  c #38271B",
",  c #3D2B1D",
"<  c #261C36",
"1  c #372822",
"2  c #3C2B22",
"3  c #342835",
"4  c #422C1E",
"5  c #48281D",
"6  c #442D22",
"7  c #462B24",
"8  c #4B2C22",
"9  c #562E22",
"0  c #453225",
"q  c #4C3424",
"w  c #4A3729",
"e  c #573625",
"r  c #53362A",
"t  c #533B2B",
"y  c #5C3C2C",
"u  c #493832",
"i  c #513934",
"p  c #5B3B32",
"a  c #663829",
"s  c #643B2D",
"d  c #763C2C",
"f  c #693C34",
"g  c #783F33",
"h  c #56412B",
"j  c #5D432E",
"k  c #5D4436",
"l  c #62432D",
"z  c #78452C",
"x  c #6C5627",
"c  c #644533",
"v  c #6A4433",
"b  c #644934",
"n  c #6B4A34",
"m  c #69453A",
"M  c #654A3A",
"N  c #6B4C3B",
"B  c #774937",
"V  c #6C533A",
"C  c #74533B",
"Z  c #78563A",
"A  c #7B563D",
"S  c #261974",
"D  c #4E364C",
"F  c #633E5C",
"G  c #4D3476",
"H  c #50464D",
"J  c #694B40",
"K  c #6C4C43",
"L  c #784B47",
"P  c #755444",
"I  c #7C5343",
"U  c #7D5A42",
"Y  c #7C544B",
"T  c #78584A",
"R  c #694F58",
"E  c #7C5C52",
"W  c #7A5A57",
"Q  c #7C6152",
"!  c #58447A",
"~  c #665364",
"^  c #70506D",
"/  c #684A75",
"(  c #69547A",
")  c #7E6561",
"_  c #796577",
"`  c #853F27",
"'  c #864A36",
"]  c #964837",
"[  c #87563B",
"{  c #8C5A3C",
"}  c #97583B",
"|  c #945B3D",
" . c #A15839",
".. c #83623F",
"X. c #9C623D",
"o. c #A4623E",
"O. c #8E4E46",
"+. c #825544",
"@. c #8B5442",
"#. c #835D43",
"$. c #8C5B44",
"%. c #86584B",
"&. c #8C5C4B",
"*. c #935D42",
"=. c #9B5C42",
"-. c #9A564B",
";. c #865A55",
":. c #9B5A56",
">. c #A75E43",
",. c #A15D56",
"<. c #846145",
"1. c #8B6444",
"2. c #876448",
"3. c #8B6449",
"4. c #8C694B",
"5. c #946344",
"6. c #9C6243",
"7. c #94644A",
"8. c #9C644A",
"9. c #966B49",
"0. c #896457",
"q. c #976857",
"w. c #977351",
"e. c #997254",
"r. c #A46444",
"t. c #A56847",
"y. c #AD6C45",
"u. c #AC6B4A",
"i. c #B56A48",
"p. c #A4734D",
"a. c #B5724B",
"s. c #B6764B",
"d. c #BD764E",
"f. c #A36A54",
"g. c #A46D5A",
"h. c #B26B54",
"j. c #A17553",
"k. c #A87957",
"l. c #B67454",
"z. c #BC7553",
"x. c #BB7956",
"c. c #8E5971",
"v. c #8B6962",
"b. c #936D63",
"n. c #9B6C63",
"m. c #8C756D",
"M. c #997666",
"N. c #9C766B",
"B. c #876775",
"V. c #8D727B",
"C. c #997B75",
"Z. c #A47563",
"A. c #A57667",
"S. c #AA7A65",
"D. c #A47C6B",
"F. c #AB7C6B",
"G. c #B57B67",
"H. c #A67C72",
"J. c #C37A54",
"K. c #C47856",
"L. c #CB7D5A",
"P. c #BEA011",
"I. c #998134",
"U. c #A28A22",
"Y. c #C7A712",
"T. c #CFAF31",
"R. c #EECB0F",
"E. c #FED701",
"W. c #FAD40A",
"Q. c #E8C614",
"!. c #EEC820",
"~. c #A88658",
"^. c #B08C51",
"/. c #B59B52",
"(. c #A6816E",
"). c #AA816D",
"_. c #B5856E",
"`. c #BB826E",
"'. c #A58473",
"]. c #AA8474",
"[. c #AA8579",
"{. c #A9887A",
"}. c #B38474",
"|. c #BC8372",
" X c #B88979",
".X c #BC937D",
"XX c #C6825D",
"oX c #CAAD47",
"OX c #CC8564",
"+X c #CA896A",
"@X c #D28A67",
"#X c #D2916E",
"$X c #C38E75",
"%X c #C78A78",
"&X c #CA9377",
"*X c #C4937C",
"=X c #CC947B",
"-X c #D59678",
";X c #D59A7C",
":X c #040285",
">X c #02018C",
",X c #1A118A",
"<X c #010195",
"1X c #0C0696",
"2X c #000098",
"3X c #150C95",
"4X c #1E1396",
"5X c #2C1C8B",
"6X c #251C96",
"7X c #2C1E96",
"8X c #332E86",
"9X c #3D2D8B",
"0X c #352593",
"qX c #483986",
"wX c #4D348A",
"eX c #5B4690",
"rX c #6F5287",
"tX c #76618C",
"yX c #8B7086",
"uX c #BB8B81",
"iX c #BD9581",
"pX c #C88E80",
"aX c #C29583",
"sX c #CB9384",
"dX c #CD9C84",
"fX c #CC9A89",
"gX c #D79983",
"hX c #D49D82",
"jX c #D29D89",
"kX c #E79F83",
"lX c #D3A285",
"zX c #DBA385",
"xX c #D4A38C",
"cX c #DDA48A",
"vX c #DCA98B",
"bX c #D6A491",
"nX c #DAA692",
"mX c #DAA995",
"MX c #D9AB99",
"NX c #E7A78A",
"BX c #E1AA8D",
"VX c #E3AB93",
"CX c #E5AB95",
"ZX c #EDB494",
/* pixels */
"2X2X2X2X2X2X2X2X2X2X2X2X2X2X2X2X2X2X2X2X2X2X2X2X2X2X2X2X2X2X2X2X2X2X2X2X2X2X2X2X2X2X2X2X2X2X2X2X2X2X2X2X2X2X2X2X2X2X2X2X2X2X2X2X",
"2X2X2X2X2X2X2X2X2X2X2X2X2X2X2X2X2X2X2X2X2X2X2X2X2X2X2X2X2X2X2X2X2X2X2X2X2X2X2X2X2X2X2X2X2X2X2X2X2X2X2X2X2X2X2X2X2X2X2X2X2X2X2X2X",
"2X2X2X2X2X2X2X2X2X2X2X2X2X2X2X2X2X2X2X2X2X2X2X2X2X7XeXB.M.k.A.B.tXeX6X2X2X2X2X2X2X2X2X2X2X2X2X2X2X2X2X2X2X2X2X2X2X2X2X2X2X2X2X2X",
"2X2X2X2X2X2X2X2X2X2X2X2X2X2X2X2X2X2X2X2X2X2XwX^ b.w.9.p.j.j.j.j.w.4.4.W / wX2X2X2X2X2X2X2X2X2X2X2X2X2X2X2X2X2X2X2X2X2X2X2X2X2X2X",
"2X2X2X2X2X2X2X2X2X2X2X2X2X2X2X2X2X2X2X2X5XF [ 9.j.p.k.~.~.~.~.e.3.I J M M C Y / qX2X2X2X2X2X2X2X2X2X2X2X2X2X2X2X2X2X2X2X2X2X2X2X",
"2X2X2X2X2X2X2X2X2X2X2X2X2X2X2X2X2X2X3XG e q e l 1.p.j.k.k.j.w.w.w.4.4.2.#.<.C v C E ! 4X2X2X2X2X2X2X2X2X2X2X2X2X2X2X2X2X2X2X2X2X",
"2X2X2X2X2X2X2X2X2X2X2X2X2X2X2X2X6X( p , : : 4 4 0 y #.1.7.9.4.2.#.U C n b C U <.<.1.<.E G 4X2X2X2X2X2X2X2X2X2X2X2X2X2X2X2X2X2X2X",
"2X2X2X2X2X2X2X2X2X2X2X2X2X2X2XG 0.C l n C A U U b n 1.9.5.{ [ Z #.U U P V b t 2 6 w q p j K / 4X2X8X2X2X2X2X2X2X2X2X2X2X2X2X2X2X",
"2X2X2X2X2X2X2X2X2X2X2X2X2X2X,Xx , 4 q j n C #.1.2.U <.j.p.9.p...n b N b t q ; = X @ = = - h Z b.! T.<X2X2X2X2X2X2X2X2X2X2X2X2X2X",
"2X2X2X2X2X2X2X2X2X2X2X2X2X3Xk # # , q e l C #.1.4.2.#.1.5.5.9.9.1.<.<.#.P C N h : : , w t w y [ ~.E._ 2X2X2X2X2X2X2X2X2X2X2X2X2X",
"2X2X2X2X2X2X2X2X2X2X2X2X1XD - # @ * 4 y v A #.1.9.4.<.[ [ 1.7.7.7.#.n n n c n n n b j c b j l Z 1.Q.oX2X2X2X2X2X2X2X2X2X2X2X2X2X",
"2X2X2X2X2X2X2X2X2X2X2X6XD , ; @ # # - 4 q n [ 1.4.7.2.[ A B C C B A <.<.U C c t t t h t t l n C A ^.R.<X2X2X2X2X2X2X2X2X2X2X2X2X",
"2X2X2X2X2X2X2X2X2X2X2X( b 6 @ @ # - : q t l l c B Z <.1.2.P b k N M N Z U U C c r 0 & 2 t M n <.#.4.T.qX2X2X2X2X2X2X2X2X2X2X2X2X",
"2X2X2X2X2X2X2X2X2X2X2XD 6 0 @ @ O # - 4 t c Z #.#.U Z U U C P M t 6 0 p m n v l q 6 j j w , n A #.4.j.m.2X2X2X2X2X2X2X2X2X2X2X2X",
"2X2X2X2X2X2X2X2X2X2X,X- - ; @ @ = @ @ # : q y v C Z Z A U P N m m N I +.+.+.+.v e c w - : q c C 2.7.w.e.2X2X2X2X2X2X2X2X2X2X2X2X",
"2X2X2X2X2X2X2X2X2X2XS - ; O @ . . @ * * : 4 q y c l l c v m P 0.q.q.A.S.Z.Z.g.&.I N t , 6 q n N Z 1.k.j.2X2X2X2X2X2X2X2X2X2X2X2X",
"2X2X2X2X2X2X2X2X2X2X3 # % @       X O # : 0 q r e y s m %.0.n.A.}.|.$X*X*X*X XS.q.%.b M M b j c U <.w.j.1X2X2X2X2X2X2X2X2X2X2X2X",
"2X2X2X2X2X2X2X2X2X5X- @ @ @ X   X X @ # & : 5 9 s B I 3.q.Z.F.|.*X=XhXlXxXxXfX*X XS.&.A N k t c b C w.9.0X2X:X2X2X2X2X2X2X2X2X2X",
"2X2X2X2X2X2X2X2X5XI.* @ + + X + + @ # & 5 e a B @.&.q.g.G.`.%X=XhXzXzXvXnXnXxXjXhX*Xk.q.I w 0 t j t <.#.9X^.R.T.<X2X2X2X2X2X2X2X",
"2X2X2X2X2X2X2X2X/.P.: @ + X .   O & 8 a d ' | 8.f.k.k.G.+X&XhXzXcXvXcXvXmXmXbXnXnXhX$XG.q.k 2 0 q q C A v.E.E.E.B.2X2X2X2X2X2X2X",
"2X2X2X2X2X2X2X<XR.P.- @ X X . O & 9 z [ 6.t.y.l.G.+X+X&X=XhXzXcXBXBXvXBXmXMXnXnXnXjX%X_.Z.J : 1 ; 0 j n T.E.E.E./.2X2X2X2X2X2X2X",
"2X2X2X2X2X2X2X:XW.Y.= @ @ o @ & 5 z X.u.s.x.x.XX+X&X-X-X;XhXzXcXBXBXVXVXmXMXbXnXxXdX*X|.Z.k 1 = % 2 t n Q.E.E.E.oX2X2X2X2X2X2X2X",
"2X2X2X2X2X2X2X>XW.Y.* X X @ - 5 z } y.a.z.z.XXXX+X#X#X-X;X;XhXzXcXBXVXCXVXnXcXbXxXdX$X_.Z.k 1 = @ : t b W.E.E.E.oX2X2X2X2X2X2X2X",
"2X2X2X2X2X2X2X2XQ.Y.*   . @ - a ' o.y.a.d.J.J.XX@X-X-X;X;X;X;XhXzXcXNXVXVXVXnXbXjXdX$X_.Z.M ; $ $ : w j W.Q.E.E.(.2X2X2X2X2X2X2X",
"2X2X2X2X2X2X2X2X/.T., o X . , z { o.y.a.d.d.K.XX@X#X-X;X;X;X=X-X;XhXhXxXnXnXmXmXbXhX%X_.S.P 2 + @ : 0 h ~.:XW.W.9X2X2X2X2X2X2X2X",
"2X2X2X2X2X2X2X2XqX!.n .   X 4 ' | o.y.a.d.d.J.K.XXOX+X&X&X&X%X&X&X%X%XsXfXbXnXMXnXxX=X XS.%.2 X X : 0 j >X2XQ./.2X2X2X2X2X2X2X2X",
"2X2X2X2X2X2X2X2X2XM.I.o . . e [ | o.y.a.s.l.l.l.x.x.x.G.`.|.`.`.`.G.G.F.D.M.A.).)._.*X XF.0.0 X $ ; 2 b 2X>XT.>X2X2X2X2X2X2X2X2X",
"2X2X2X2X2X2X2X2X2X2X~ <   . q | X.r.6.| *.[ A ' $.7.f.g.g.G.G.S.q.%.I p 2 1 2 i K P 0.S.).q.u X % = 1 V 2X>X>X2X2X2X2X2X2X2X2X2X",
"2X2X2X2X2X2X2X2X2X2X2XS X   q | X.[ a 9 7 4 7 & : 8 s @.:.f.g.q.%.I Y L K P E ;.0.0.b.D.}.D.k X % = ; J 2X2X2X2X2X2X2X2X2X2X2X2X",
"2X2X2X2X2X2X2X2X2X2X2X2X3 . 4 6.X.z s s s v c p y e y a ' t.k.F.n.;.Y K s p m T W 0.N.[.iX}.M @ $ = = U.<X2X2X2X2X2X2X2X2X2X2X2X",
"2X2X2X2X2X2X2X2X2X2X2X2X3 . : X.6.{ A B a y 8 7 8 9 9 9 z J.vXdXH.;.m r r 1 $ H R K b.].aX$XT $ @ = = H 2X2X2X2X2X2X2X2X2X2X2X2X",
"2X2X2X2X2X2X2X2X2X2X2X2X5 O : 6.t.X.z e 8 6 @ $ w 8 8 e z @XZXBX[.C.W p N k u R v.b.]..XdX=Xq.% = : = S 2X2X2X2X2X2X2X2X2X2X2X2X",
"2X2X2X2X2X2X2X2X2X2X2X2Xa : : r.y.y.} z a v r y m f B B r.@XZXCXsX[.v.%.' +.;.b.H.[.fXlXlXdX).1 1 6 8 ~ 2X2X2X2X2X2X2X2X2X2X2X2X",
"2X2X2X2X2X2X2X2X2X2X2X0X` 9 : t.a.s.a.r.} [ B ' g ' =.t.z.L.NXCXjXaX[.n.:.&.;.q.A..XjXvXvXhX$X2 6 6 &.T.S 2X2X2X2X2X2X2X2X2X2X2X",
"2X2X2X2X2X2X2X2X2X2X2XwX .z 5 t.a.d.z.a.o.' ' B { t.l.i.i.L.NXNXgXpX XuX XG.G.|.;XBXCXVXvXdX*XK f m }.qX<X2X2X2X2X2X2X2X2X2X2X2X",
"2X2X2X2X2X2X2X2X2X2X2XwXy.' 9 t.a.J.J.K.K.z.l.l.x.XXd.i.i.L.kXNXgX=X%XsXsXgXgXcXBXVXVXVXvXlX*Xb.L n.*X7X2X2X2X2X2X2X2X2X2X2X2X2X",
"2X2X2X2X2X2X2X2X2X2X2X2Xi.} ' 6.a.J.J.L.@XOXOX+X@XOXK.i.i.K.#XkXgX%X%XsXjXjXcXBXVXCXCXMXmXxX*Xq.H.}.uX2X2X2X2X2X2X2X2X2X2X2X2X2X",
"2X2X2X2X2X2X2X2X2X2X2X2Xh.i. .r.a.J.J.XXOX@X@X#X@XXXd.>.K.L.#XNXcXgX=XG.=XgXgXjXcXnXnXnXxXxX*X}.aX XrX2X2X2X2X2X2X2X2X2X2X2X2X2X",
"2X2X2X2X2X2X2X2X2X2X2X2X,.o.i.o.a.z.J.L.OX@X@XOXOXz.>.J.J.L.@X&XsXsXjXG.G.+X%XsXsXjXfXfXfXdXaX XaX[.2X2X2X2X2X2X2X2X2X2X2X2X2X2X",
"2X2X2X2X2X2X2X2X2X2X2X2Xc.d.a.o.u.l.z.K.K.K.K.z.h.>.} >.@.{ f.Z.n.L n.G.%XG.G.|. X%XuXuX.XaX*X*XaXeX2X2X2X2X2X2X2X2X2X2X2X2X2X2X",
"2X2X2X2X2X2X2X2X2X2X2X2X0Xx.z.i.t.u.u.u.u.h.u.r.=.=.>.' 9 5 I q.;.Y ;.G.%X|.G.S.F.}.}.}.[.iX.XH.wX2X2X2X2X2X2X2X2X2X2X2X2X2X2X2X",
"2X2X2X2X2X2X2X2X2X2X2X2X2XB.d.d.t.6.6.6.8.8.7.*.| t.u. .d a s K ;.v.N. X X|.G.F.D.H.[.[.[..X[.7X2X2X2X2X2X2X2X2X2X2X2X2X2X2X2X2X",
"2X2X2X2X2X2X2X2X2X2X2X2X2X0Xc.:.| 5.*.*.$.&.$.@.=.t.t.t.=.[ I K E v.H.}.}.F.A.A.D.D.[.[.[.iXV.2X2X2X2X2X2X2X2X2X2X2X2X2X2X2X2X2X",
"2X2X2X2X2X2X2X2X2X2X2X2X2X2X2X1XG 5.*.$.$.@.@.*.=.=.8.=.8.8.&.B Y v.N.H.].D.b.M.D.H.[.].}.iXyX2X2X2X2X2X2X2X2X2X2X2X2X2X2X2X2X2X",
"2X2X2X2X2X2X2X2X2X2X2X2X2X2X2X2X1X&.7.*.$.{ $.{ [ @.$.*.{ @.&.%.%.;.0.b.b.0.P 0.N.H.'.].}..XeX2X2X2X2X2X2X2X2X2X2X2X2X2X2X2X2X2X",
"2X2X2X2X2X2X2X2X2X2X2X2X2X2X2X2X2X^ 5.7.| | | { z s f s a a a f f L L %.L L Y 0.N.'.'.{.{. X3X2X2X2X2X2X2X2X2X2X2X2X2X2X2X2X2X2X",
"2X2X2X2X2X2X2X2X2X2X2X2X2X2X2X2X2XG 5.7.6.| =.{ ' [ z d ' O.,.:.:.:.,.:.n.N.M.q.D.'.'.{.{.yX2X2X2X2X2X2X2X2X2X2X2X2X2X2X2X2X2X2X",
"2X2X2X2X2X2X2X2X2X2X2X2X2X2X2X2X2X2X;.7.5.5.| { | 6.6.=.] ] -.-.-.,.Z.D.D.(.D.D.D.].].{.{.eX2X2X2X2X2X2X2X2X2X2X2X2X2X2X2X2X2X2X",
"2X2X2X2X2X2X2X2X2X2X2X2X2X2X2X2X2X2XqX7.7.5.5.| } r.=.=.*.{ @.%.&.q.N.D.(.(.).).(.'.[.{.{.2X2X2X2X2X2X2X2X2X2X2X2X2X2X2X2X2X2X2X",
"2X2X2X2X2X2X2X2X2X2X2X2X2X2X2X2X2X2X2X;.3.*.*.| | 6.} =.$.+.+.Y Y ;.b.M.D.F.).'.'.'.].{.tX2X2X2X2X2X2X2X2X2X2X2X2X2X2X2X2X2X2X2X",
"2X2X2X2X2X2X2X2X2X2X2X2X2X2X2X2X2X2X2XwX$.&.*.*.*.6.| *.{ @.@.%.&.0.q.M.D.).(.'.'.[.].yX<X2X2X2X2X2X2X2X2X2X2X2X2X2X2X2X2X2X2X2X",
"2X2X2X2X2X2X2X2X2X2X2X2X2X2X2X2X2X2X2X2XG $.$.$.*.6.5.*.5.=.8.8.q.g.A.F.F.].].'.{.'.V.3X2X2X2X2X2X2X2X2X2X2X2X2X2X2X2X2X2X2X2X2X",
"2X2X2X2X2X2X2X2X2X2X2X2X2X2X2X2X2X2X2X2X2X/ #.#.$.5.*.6.t.t.f.f.f.Z.F.F.D.D.'.C.'.V.6X2X2X2X2X2X2X2X2X2X2X2X2X2X2X2X2X2X2X2X2X2X",
"2X2X2X2X2X2X2X2X2X2X2X2X2X2X2X2X2X2X2X2X2X2X/ #.+.$.$.$.*.=.8.q.7.q.M.M.M.C.'.C.V.6X2X2X2X2X2X2X2X2X2X2X2X2X2X2X2X2X2X2X2X2X2X2X",
"2X2X2X2X2X2X2X2X2X2X2X2X2X2X2X2X2X2X2X2X2X2X1XR #.U I I I +.&.0.0.0.0.v.b.M.m._ 6X2X2X2X2X2X2X2X2X2X2X2X2X2X2X2X2X2X2X2X2X2X2X2X",
"2X2X2X2X2X2X2X2X2X2X2X2X2X2X2X2X2X2X2X2X2X2X2X4XG R P P P T E Q Q Q 0.0.v._ 9X2X2X2X2X2X2X2X2X2X2X2X2X2X2X2X2X2X2X2X2X2X2X2X2X2X",
"2X2X2X2X2X2X2X2X2X2X2X2X2X2X2X2X2X2X2X2X2X2X2X2X2X2X1X9X! ~ E Q 0.) ^ ( 9X2X2X2X2X2X2X2X2X2X2X2X2X2X2X2X2X2X2X2X2X2X2X2X2X2X2X2X",
"2X2X2X2X2X2X2X2X2X2X2X2X2X2X2X2X2X2X2X2X2X2X2X2X2X2X2X2X2X2X2Xm.E.( 2X2X2X2X2X2X2X2X2X2X2X2X2X2X2X2X2X2X2X2X2X2X2X2X2X2X2X2X2X2X",
"2X2X2X2X2X2X2X2X2X2X2X2X2X2X2X2X2X2X2X2X2X2X2X2X2X2X2X2X2X2X2X_ W.,X2X2X2X2X2X2X2X2X2X2X2X2X2X2X2X2X2X2X2X2X2X2X2X2X2X2X2X2X2X2X",
"2X2X2X2X2X2X2X2X2X2X2X2X2X2X2X2X2X2X2X2X2X2X2X2X2X2X2X2X2X2X2X>XT.2X2X2X2X2X2X2X2X2X2X2X2X2X2X2X2X2X2X2X2X2X2X2X2X2X2X2X2X2X2X2X",
"2X2X2X2X2X2X2X2X2X2X2X2X2X2X2X2X2X2X2X2X2X2X2X2X2X2X2X2X2X2X2X2X8X2X2X2X2X2X2X2X2X2X2X2X2X2X2X2X2X2X2X2X2X2X2X2X2X2X2X2X2X2X2X2X",
"2X2X2X2X2X2X2X2X2X2X2X2X2X2X2X2X2X2X2X2X2X2X2X2X2X2X2X2X2X2X2X2X2X2X2X2X2X2X2X2X2X2X2X2X2X2X2X2X2X2X2X2X2X2X2X2X2X2X2X2X2X2X2X2X",
"2X2X2X2X2X2X2X2X2X2X2X2X2X2X2X2X2X2X2X2X2X2X2X2X2X2X2X2X2X2X2X2X2X2X2X2X2X2X2X2X2X2X2X2X2X2X2X2X2X2X2X2X2X2X2X2X2X2X2X2X2X2X2X2X",
"2X2X2X2X2X2X2X2X2X2X2X2X2X2X2X2X2X2X2X2X2X2X2X2X2X2X2X2X2X2X2X2X2X2X2X2X2X2X2X2X2X2X2X2X2X2X2X2X2X2X2X2X2X2X2X2X2X2X2X2X2X2X2X2X"
};
