/* XPM */
static char *result[] = {
/* columns rows colors chars-per-pixel */
"64 64 256 2 ",
"   c #080711",
".  c #1D1C37",
"X  c #141229",
"o  c #221A2C",
"O  c #1C2239",
"+  c #28233A",
"@  c #38293A",
"#  c #3B2F35",
"$  c #2E171D",
"%  c #493737",
"&  c #553B3C",
"*  c #47322C",
"=  c #462A1F",
"-  c #4D433B",
";  c #55433A",
":  c #60423E",
">  c #191B4A",
",  c #1B2D4F",
"<  c #2A2646",
"1  c #362C47",
"2  c #3A3548",
"3  c #292957",
"4  c #383658",
"5  c #2D3152",
"6  c #373966",
"7  c #393A74",
"8  c #2B3363",
"9  c #1F3A60",
"0  c #453749",
"q  c #563C45",
"w  c #453A57",
"e  c #523C59",
"r  c #473C67",
"t  c #473D78",
"y  c #533D70",
"u  c #603D5D",
"i  c #374559",
"p  c #3B4469",
"a  c #3A4776",
"s  c #395478",
"d  c #2B4971",
"f  c #4B434A",
"g  c #584648",
"h  c #494456",
"j  c #574758",
"k  c #595459",
"l  c #505559",
"z  c #65494B",
"x  c #644B57",
"c  c #695459",
"v  c #76575C",
"b  c #69554E",
"n  c #6F655B",
"m  c #484568",
"M  c #574968",
"N  c #4C536A",
"B  c #5A5468",
"V  c #474878",
"C  c #554A76",
"Z  c #4A547A",
"A  c #585677",
"S  c #654B68",
"D  c #67566A",
"F  c #745967",
"G  c #675877",
"H  c #755B77",
"J  c #654A74",
"K  c #536578",
"L  c #796469",
"P  c #696479",
"I  c #796578",
"U  c #7B737D",
"Y  c #855C6C",
"T  c #856778",
"R  c #97737E",
"E  c #8B6C74",
"W  c #364987",
"Q  c #3A5587",
"!  c #3D5A95",
"~  c #334C94",
"^  c #3C6595",
"/  c #396DB2",
"(  c #3B5EA5",
")  c #474B85",
"_  c #554C84",
"`  c #495788",
"'  c #575988",
"]  c #485896",
"[  c #595A96",
"{  c #494F95",
"}  c #675986",
"|  c #765D88",
" . c #675B96",
".. c #755D98",
"X. c #624D8A",
"o. c #496589",
"O. c #59658B",
"+. c #486798",
"@. c #57679A",
"#. c #577398",
"$. c #507392",
"%. c #686587",
"&. c #786887",
"*. c #797289",
"=. c #676897",
"-. c #776996",
";. c #68749A",
":. c #78759A",
">. c #66758A",
",. c #5B59A3",
"<. c #4969A7",
"1. c #5968A5",
"2. c #4A77A7",
"3. c #5976A7",
"4. c #4776B4",
"5. c #567AB7",
"6. c #4F6AB2",
"7. c #6969A5",
"8. c #7868A6",
"9. c #6979A9",
"0. c #7878A8",
"q. c #6379B8",
"w. c #7977B6",
"e. c #746BB3",
"r. c #705AA4",
"t. c #4C7AC4",
"y. c #717AC2",
"u. c #4A5BA2",
"i. c #866B87",
"p. c #936D87",
"a. c #897488",
"s. c #967689",
"d. c #856B97",
"f. c #897598",
"g. c #9C7C9C",
"h. c #957996",
"j. c #946D9B",
"k. c #A47B92",
"l. c #856BA5",
"z. c #8778A6",
"x. c #957BA6",
"c. c #8879B7",
"v. c #967CBA",
"b. c #866DB7",
"n. c #A37BA5",
"m. c #A87FBC",
"M. c #815E8A",
"N. c #987BC7",
"B. c #8878C4",
"V. c #AD7DD1",
"C. c #6E8199",
"Z. c #4A83BA",
"A. c #5986BA",
"S. c #598EB4",
"D. c #6A86AB",
"F. c #7987A7",
"G. c #6988B9",
"H. c #7787B7",
"J. c #7896BA",
"K. c #6D92B3",
"L. c #4988CB",
"P. c #558AC7",
"I. c #5996C9",
"U. c #4C96D6",
"Y. c #5899D6",
"T. c #4C8FD2",
"R. c #6789C6",
"E. c #7988C6",
"W. c #6797C9",
"Q. c #7997C6",
"!. c #689AD5",
"~. c #7898D7",
"^. c #6E88D1",
"/. c #5AA4D6",
"(. c #79A2C8",
"). c #67A7D8",
"_. c #78A6D9",
"`. c #72ACD7",
"'. c #59ACE8",
"]. c #66B6E8",
"[. c #70B0EA",
"{. c #799BE3",
"}. c #5EC6F6",
"|. c #79CAF8",
" X c #6FCEF6",
".X c #79D3EC",
"XX c #3484C4",
"oX c #998398",
"OX c #8A8594",
"+X c #A68599",
"@X c #B58B98",
"#X c #8784A8",
"$X c #9785A8",
"%X c #8888B6",
"&X c #9888B6",
"*X c #9896B8",
"=X c #8D96B1",
"-X c #A788A6",
";X c #B58BA8",
":X c #AA94A9",
">X c #B695AC",
",X c #A989B6",
"<X c #B38CB3",
"1X c #A996B7",
"2X c #B798B8",
"3X c #B4A1B9",
"4X c #92A3B9",
"5X c #C89BB8",
"6X c #C996AE",
"7X c #C7A5BD",
"8X c #D2A9BC",
"9X c #C18B98",
"0X c #8886C5",
"qX c #9A86C7",
"wX c #8A98C7",
"eX c #9797C6",
"rX c #9799D6",
"tX c #8E90D6",
"yX c #A789C8",
"uX c #A898C5",
"iX c #B798C6",
"pX c #A58AD3",
"aX c #A798D4",
"sX c #B591CD",
"dX c #84A7D7",
"fX c #99A4D7",
"gX c #91ABCE",
"hX c #A7A3C6",
"jX c #BAA6C8",
"kX c #A9A7D9",
"lX c #B7A7D7",
"zX c #B0B7D2",
"xX c #B398E5",
"cX c #85B9EA",
"vX c #94AFE8",
"bX c #AEABE8",
"nX c #859FE0",
"mX c #C798CB",
"MX c #C8A5C7",
"NX c #D7A6C9",
"BX c #C7A9D6",
"VX c #D8ACD9",
"CX c #D6B8D9",
"ZX c #CEB5D1",
"AX c #E7B9D9",
"SX c #E4A9D2",
"DX c #CAB6E4",
"FX c #CEAEEE",
"GX c #E8B6ED",
"HX c #C199E9",
"JX c #8EC9F6",
"KX c #A8D6F2",
"LX c #D6D8F9",
"PX c #D0C9F1",
"IX c #EECAEC",
"UX c #E6D8E9",
/* pixels */
"z.c q Z p 3.[.!.!.I.P.Z.L.L.P.Y.t.t./ 4.q.q.@.@.[ Z m [ :.z.z.:.8.' ) @.@.] @.x.&Xz.d.d.-.f.a.g.f.U P I E i.I T T L j 0 *.F.F.;.",
"iX$Xa.a.*.D..X X|.bXkXgXkXeX0XfXvXtXE.0XqXpXN.=.[ =.%X$Xx.H ' %XwX&.2.3.W.G.5.bXPXPXFXbXBX2Xn.1X$Xg.h.a.+X6X6X8X7XOX%.:.E.3.=.0.",
"uXsX$XH.K.J.;.D.].JXJXJXvXvXdXJXbXy.y.vXpX0X0.=.#XOXL F D A x.zXW.i.I m $.I.T.4.~.bXbXlXuXn.k.:XoXH D R R R oXoX:.=.;.:. .J I %X",
"~.1X&.-X' 5.R.G. X X X}.].'.].'.'.'.XXU.{.!.G.1.L E @Xh.p B $XzX_.%Xz f.K A o.#.wX1X1X1X:X1X2X1X+Xa.S U k.a.T L %.:.z.d.` -.f.~.",
"L.wX=XjX<X[ {./.]..X X].].U.'.'.'.'.U.T.Y.~.5.=.F.2Xh.p @ r dX`.OXvXO.h OXP *XhX*XuX1X<X*Xf.oXoXf.U D B I s.T a.2XBXl.Z < &.fXeX",
"].W.fXF.:X,X' P.]. X|.].U.U.U.U.U.U.XXt.T.W.H.).J.&.a j g G ).I.T hXK., h #X*.1XCX*X:X1Xf.*.T a.*.G B B D *.+XCXBX-.A . 2 f.*XF.",
"|.].0.%.h +X&X%.Q.'.`./.T.U.I.T.U.T./ 4.5.T.[._.%._ D D q ;./ A.P 0.H.4 > 0 #Xs.5X2Xx.i.i.*.F P P B B x k *.AXlX7.} 1 , D f.J.>.",
").S.E.%Xh # 2X<X_ 5.U.I.I.U.Y.T.U.T.t.<.G.'.).G O.oXB f B 9.! 5.A Z G.m 3 > k 1Xj.+Xx.&.I O.D D B B B g E 7XlX=.=.Z O @ P #X].O.",
"`.l I.KX4Xi B 2XiXX.! L.P.U.Y.Y.U.T.t.I.|.!.B [ $XH.s h p A Z <.N Q ` d 8 ! m G uX$Xp.i.&.M M k k B l &.5XuX .,.V p 5 h K J./.P ",
"/.l ^  XKXJX4 # >XuX .~ t.L.Y.I.L.L.Y. X_.A ;.:X%X<.+.s i B V ^ h ] W 3 7 1.Q < &.rX,Xi.H J j j j N %.jXiX[ w.M 5 V C.A s S.S.>.",
"S.- l U..X.XZ.< + s.*X .~ / A.P.( P. X_.A ;.>X;.] :.o.+.s f r ! f Q d 8 { t 8 W > G kX,Xi.A G j % P iX,X,.w.S o y U U o.d K 2.K ",
"^ # i /./.Z.^ Q X o a.$Xr.W <.G.O.|..XO.9.3XF.Z N ' =.` ^ 0 4 s 0 W W 7 ) 8 > 4 d > &.iX<XI F.F.N F.#X1.B.J @ 2 f n E V ^ Z.^ i ",
"s l K S.+.Q s W i   o a.x.8.=.H.z.gX;.0.8X%XA ' ` V ` ;.` N } Z @ +.<.t 7 3 > @ i d 9 8.aX5XdXQ.J.@.q.tXd.f j k n - c } s L.3.B ",
"s l N ` d 9 9 9 9 ,   o oX*XaXF.,X$XD.2X=X%.:.O.K ` s ' O.C ' =.2 1.] t 3 > . @ * i s s pXxXfX9.wXB.rXj.k P L n k g - e O.t.3.I ",
"' M _ m p ' ) V a ) V X h a.$Xa.c.rXv.=.[ 0.=.%.' ` Z p !  .Z ' G { ] V 8 t r S F j A +.' yXrX| g.hXiXj D L n b ; ; & + W 6.` K ",
"' k N 6 ' @.[ [ { ) ] ' N G +X&X=.h.7.[  .) Z ' A V p 7 8 l ` _ X.` ] a ' ,.[ | &.H B C a ` A.:.1.Z.H.w.U - g k ; ; * @ 3 ^ o.M ",
"7 k G r 7 7 W 7 7 7 8 ` %.j s.#X%.$Xe. . .V r m m 6 6 6 p k ' V M V @.' ) W ) S G S h V ) _ _ -.-.=.-.f.a.- - - - - % * < ) ) i ",
"p N m 4 6 4 8 6 4 3 ` JXfX-X9.| } eXaX%.7.=.J G C t 8 4 a C ) p A W W o.] a V F P D C a ' w.qX} I bXfXW.dXU v n b ; * # 5 W 7 h ",
"3 B h X w A y y r [ !.(.$Xw.&XI i.%.K.hX0.0.w.-.G r 5 r V m ' A G a a W $.9.-.h.h.-.t a #.eXuX*.I e.Q.dXcX#XoXY n : * % 1 ~ a B ",
"4 k g < X m X.V _ 5.J.h.w.x.A +Xp.1 D F.jX:.7.-.u w C ' a &.%.B *.5 Z 3.s 9.z.;Xl.) ) o.%X2X2 f.G %.w.w.`.JXJ.a.b & b b 3 Z r D ",
"w g q @ < > y 7.y.0.f.B.8.+ 8 :.D < w A #X>X%.=.A M _ W ` x P G -.@ N D.3.Q %XyX,.[ ^ %Xg.0 e d.} jXiX7.9.W.JX0.F b D h w 1 w D ",
"w z k w 0 . 8 6.F.g.w.8.3 . w r 4 < + u P 0.-XA ,.' 9 ) 4 g z.%.*.0 K ~.G.3. .,.1.4.0Xp.h h F i.H P CXiX=.=.I.`.=.P h k @ + C I ",
"2 z S q e B 7 G :Xe.8.6 5 < < r 1 . o < D %.:.+X_ ( _ + 3 H z.G f.# B dXdXJ.m Q I.0Xp.M H D F i.I q D AXiX .} A.I.) B = $ + r F ",
"2 q k 0 I _ A :XB.8.t t 6 . < w 1 o X < w I H 0.<XO.r 0 3 A %XB z.0 :.Q.fX@.! '.kXT D f.a.I H a.i.D e T IXiX_ ' /.S.r 0 = 1 w D ",
"w 0 T x.I L :Xw.8.C { t 3 + < e 1 + + @ m m G :.0.+XM k ;.j 9.D #X' ;XlXH.7./.vXL I :X1X$Xi.a.+Xh.&.H F h.AXuX} [ I.$.` a.| e I ",
"1 w x.&.T :X7.8.-.C r 3 3 < 1 h w < 1 w 1 . V $X#X-.s.v D.H C S 1X:X<XzXR.[.tXi.oX3X1X3X;Xh.oX>X+Xf.i.j.G B IXlX] Z 3.S.:.s.F I ",
"w H &Xp.+X7.,.x.&Xs 1 < < < w j 0 @ w 1 X o A 2XMX<Xd.R OX0.H D 3X>XBX[.`.nX%.+XZXzXZX7X>X+X2XMX:Xd.x.| h C f.IXVX8.C 6.H.+X;X+X",
"m x.;.f.7.e.0Xy.Z 9 d 2 < . < i + < 1 X . @ j x.GXIX>Xd.+XwX&.G a.:XkX`.dXO.U *XzXLXPXCX5X-X2XMX$Xh.p.j B D T g.VXBXl.X.` $XiXjX",
"0.f.' 6.( t.H.#., , 8 9 < < > 5 2 1 o . + j B M *XjXZXhXH.[.-.a.=XyXuXcXdXF.G.K.KXPXLXUXAX8X>X1X:XoXT P F s.OXa.#X,XmX8.V 1X,Xc.",
"f.h.5.! G.fX=X;.D.4XvXfXfXqXc.fXaXw.w.8.tXxX%Xz.*X2X1X$XP D.0.$X=.,XnX/.W.!.5.5.tXeX&XeX=X$Xh.=X+Xa.T v +X-XE a.eXaX&X&.V -.x.,X",
":.=.U -XvX$.d o.F.eXeXqX,Xx.l.%X0X8.8.8.v.z.-.G C _ -.oXoX*.>.:.d.9.a  .R./ !.vXeX%X%X$X-X+Xh.oXoXi.H D i.F c z g j ;.vXF.C H z.",
"G L I 4XgX;.#.1.@.+.` Q W Q [ ' ) ` ) ) C V m r r 4 6 m =.z.-.:.%.m } 7.9.E.rXsXaXrXeX$Xx.$X:Xh.U I P H c c x g g ; 0 $.=X#XO.9.",
":.Y l D.:X>X1XuXiX1X,Xx.c.x.v.yXv.c.w.c.N.v.l.-.| M B } N %.$XO.|  .4 ! e.N.aXxXFXxXBXmXuXjX5XMX;XOX&.i.p.T F F x q z a.K.#.9.;.",
"*.0.1X$X*X4XF.$.s ] ~ a ` V 8 a 6 3 3 < w J M j M } p.I d.h.9._ M *X*X*.3.3.~.PXbXfX%X:.f.i.c P P k k h c Y H Y v H #XD.9. .} C ",
"=.=.%Xw.R.wXwXF.3.^ Q o.A V ' 7.} C y H | J B J | R U =X2X+.#.I 8 P wX`.`.J.5.6.vXvXeX4X$X$Xk.=XoXU D Y v c x L :.#.Z } 8.A h M ",
"9.K.O.B ! 2.3.K.4XF.#XF.&.T -.:.f.d.X.i.n.j.H G f.>.J.JX9.I.%.*.O.N F.J.`.C.K.~.PXPXLXPXAXIXIXUXNX>XI I T F g f C M G =.a A ' ;.",
"A S.!.$X&.W d d D.gX=X=X#X-.-.l.l.-... .l.j.H M i V D.' h.4.s ;.D K (.).J.S.K C.rXLXDXNXZXZXCXCXZX*X&.S F v g g I *.%.Z a A Q.DX",
"f.Z ).zX;X&.W , i F.jXjX%Xz.j.x.c.8.......l.G + 1 =.' s.1XK i :.2X*.Z.).(.W.S.K =XfXDXCXzXZXjXBXjXoXT H S x T @XoX%.) +.%.Z F.:X",
"$XB Q G.a.@X-._ 4 < =XuX&XqXv.v.b.b.....-.' w 4 @.%.h.iX=X< a z.&X#Xp G.q.S.K.K.E :XsXuXkXjXiX2X>XoXI v x d.AXuX@.1.3.$XP N A OX",
"$X0 V ;.P D 6X-.V 5 3 0.lXaXpXqXN.B.r.M.J 5 3 ' =.2Xl.x.K <  .l.-.A M ` 9.) (.J.#.H f.&XlX2X2X>X+Xh.H x R ZXhXO.2.~.a.i.h B P *.",
"f.% B a.I B oX>X&.V > 3 B.xXpXpXN.B.y.} w . m =.1XtX .B 2 J 8...&.C C V _ ' ;.).J.o.h H z.1X<X-Xs.a.F a.AX1X` @.!.eXa.- * I a.I ",
"x.g x *.f.*XB E >X%.Z > 4 qXxXpXN.N.e.B + 6 ;.;XN.,.@.h 2 p.-...H  .t r ) 0._ _ !.G.Z 0 j d.:X+Xp.I #XUX4X] R.).*Xz.K * * s.$XI ",
"$Xz x a.1X2Xi.u Y T P Z 3 r B.xXV.w.%.2 p =.+Xl.r.-.N o.2 T -. .D r._ 7  .r.t X.V 2.D.a 1 2 a.+XY f.LXuX+.9.`.z.p.F g A % x.x.F ",
"j.q v +X$Xh.oXh.M Y T H _ 8 J c._ %.p p 9.k.x.X.C D &.Z s I } } S  . .C X.t y y t 7 2.9.m + w *.j lXfX! q.).$XF q g F f h x.x.x ",
"f.c s.oXh.h.h.-Xh.D p.i.D Z :.B G k Z w.g.m.| -.} M C %.m :.z.| e c.z.V _ r r e M t t t.;.r 1 N M 0.+.y.[.3XE c & * q v g tXiXF ",
"z.H i.g.a.T a.a.+Xx.&.+XoXH #Xi } *.F.*.$Xz.$Xz.-.A m B G -.l.v.M B.b.t r 3 r w e y y ) ~.0.Z m h ] ~.`.jX@XY b z & % q x pXsXa.",
"iXJ j.f.a.,X<X2XmXBXuXK.(.*.%.m ' #X%.) 7.qXqXl...G j 4 V -.-.l.| b.b.C y ......l.l.M._ <.9.' V A 7.W.Q.2Xp.Y z z q % * j pXuX| ",
",XY h.a.-XMXlXBXBXHXFX0.p M +Xc.:.x.7.1.c.N.c.-.&.C h w 4 %.0.b...yXc.t ..c.N.qXpXN.N.} 6 7 %.%X=.' O.7.i.z z u : & % % % *XuXH ",
"n.F g.k.s.n.-X;X<X<XiX} Z G oX%.%.$X[ ' %XpXb.-.} C M e w i.c.l...qXpX} r.r.b.N.qXqX&X=.{ ) ~.9.' !.D.@.&.F x g & & % q q *XuXD ",
"-X} d.s.g.p.k.n.;X<Xg.L e G *.d p :.z.%. .&XsXn.d.} M r Z ..c.8.0.N.e.r.b.r.b.N.pXsX8. .Z m G.a s q.6 0 I s.R Y F z & q M &Xv.H ",
"$Xi.a.H k.6X6X5X5Xm.k.x B w.%.J.:.%.K oX$X&.yXsXx.| M G G d.qXsXx.pXqX_ v.xXxXHXFXV.X.4 O 7.).D.Q.<.O.w I R @X+Xs.F & z c B.,Xh.",
";Xi.-X-Xi.<XNXNX<Xp.x j 0.=.V =X=XK.;.A -X$X%.v.j.H d.-._ yXyXiXm.qXyXe.r.xXFXGXV._ r + @.fXQ.wXH.` @.O.h E R +XR v L T A jX<Xk.",
"iXk.>X<X;Xj.NXmXd.S B c.' W ) BXjX[.].#.B oXx.G M.d.z.,.=.n.sXmXyX,X,Xb.V.B.GXHX .r + 7.q.oX1XlX&XaX&X) ' 0 s.R R s.oX&.i.+X>X>X",
"6X@X8XBX5X>X&.| F I H.[ ] Q $XCXNX%X'.[.$.A s.&.X.l.=.8.J ;XFXmXmXn.uXV.V.xXr.X._ 1 =.7.f.p.mXVX5X,XDXx.` _ # L p.+Xa.s.Y T mXNX",
"uX9XNXAXAX>X% & +X%X[ 6.5.2.G._.(.G.P.[.|.#.G *.} ) =.u e v.HXaXmX=.b.sXFXm.4 2 r [ ` d.k.<XVXVXNX;Xn.BX$X) _ 1 I #X-XY Y ;.uXSX",
"wX@XzXNXMXS g 2XnX@.t.!.A.Z.A._.{.T.P.^.[.JX` } x.-.J r r 7.sXtXmX[ v.sXxX%.m C 7.A f.n.kXDXVXGXNX5X6X5XCXx.a _ m OXk.R E F.fX8X",
"~.hX9.i.R v 3XnX@.L.[.{.L.4.A.nX_.Y.R.^.{.cX].+.G d.i.S 2 #.w.rXmX,.hX#X,X| m  .l a.n.lXPXDXCXGXVXNXSXSXAXNXd.` ' m +X,XD P vXMX",
"_.cXG p.k.MX~.+.).[.!.Y.I.A.W.dX`.!.!.{.t.5.|.|.o.J T ;Xf K 1.eXVXqX#X<Xv.M ' m OXoXuXFXFXDXPXIXAXVXSXGXNX+X2X$X! _ j MXd.M MXZX",
"cXQ.H 5X7X).( ).|.].).Y.P.A.~.cXgXG.~.^.<.<.E.JX[.%.C E Y j `.kXSXzX$X-XS ' 8 E 4XzXLXDXDXDXIXIXGXVXGXSX;X5X8X6Xg.[ C J n.G -XCX",
"R.G A jX_.( L.Z.'.}.}.).I.A.!.[.!.W.R.+.6.1.H.%XH.Q.m C j q (.KXMXgXP x O.p K K zXLXLXPXPXMXPXIXDXVXSX;X<X5XIXMX+Xs.%.C M a.;.lX",
"G.w A [./ ! 1.D.}.}.}.}.!.W.I./.).W.5.<.3.w.E.0.s.p.D 0 C r A kXJX;.j ] d K #.J.LXLXLXLXCXCXZXPXZX8X>X;X@XSXAXAX*X,X1X7.C &X' dX",
"O.4 E.0XH.K.;.D..X].4.t.Z.<.^ Z.G.` Q s 9.E.%X%X1X6X@XE g h 4 #XP.B #X0.K.W.2.+.9.#XF.;.>.D D >.U | D x OX-X>X8X1X#X$X:.C -.G Q.",
"m =.$X-.C.:.]. X|.).Y.I.!.Y.A.Y.Y.P.5.5.~.G.9.=.[  .d.-Xh.a.H $.#.=.Q.9.4.<.5.H.0.0.-.-.a.U D &.*.D H G a.a.U s.:X;XE *.@.q.:.O.",
"Z T L P C.hXkXrXbXaXvXtX0XwXfXwXE.H.y.y.e.e.=.} C m w B -.*.$X=.O.%.Z [ 0.E.kXxXFXbXxXlXuX,X6X-Xh.j.i.a.E E T F v c z g A +.#.=."
};
